<?xml version="1.0" encoding="UTF-8"?>
<svg xmlns="http://www.w3.org/2000/svg" xmlns:xlink="http://www.w3.org/1999/xlink" version="1.2" >
<font id="Futura Std Light Condensed Oblique">
<font-face  font-family="Futura Std" units-per-em="1000" ascent="825" descent="-175" font-style="italic" font-weight="300" font-stretch="condensed" slope="-9" cap-height="754" x-height="470" underline-position="-75" underline-thickness="50" />
<missing-glyph  horiz-adv-x="611" d="M111 0 L611 0 L611 700 L111 700 L111 0 Z M361 395 L191 650 L531 650 L361 395 Z M391 350 L561 605 L561 95 L391 350 Z M191 50 L361 305 L531 50 L191 50 Z M161 605 L331 350 L161 95 L161 605 Z " />
<glyph glyph-name="NULL" d="" />
<glyph glyph-name="CR" unicode="&#xd;" horiz-adv-x="250" d="" />
<glyph glyph-name="space" unicode="&#x20;" horiz-adv-x="208" d="" />
<glyph glyph-name="exclam" unicode="&#x21;" horiz-adv-x="343" d="M168 189 L235 189 L324 754 L257 754 L168 189 Z M187 94 C159 94 132 71 128 43 C123 15 143 -8 171 -8 C199 -8 225 15 230 43 C234 71 215 94 187 94 L187 94 Z " />
<glyph glyph-name="quotedbl" unicode="&#x22;" horiz-adv-x="309" d="M148 528 L207 528 L250 754 L175 754 L148 528 Z M271 528 L330 528 L373 754 L298 754 L271 528 Z " />
<glyph glyph-name="numbersign" unicode="&#x23;" horiz-adv-x="416" d="M35 0 L82 0 L185 249 L255 249 L152 0 L202 0 L303 249 L394 249 L418 300 L324 300 L378 431 L470 431 L493 482 L397 482 L504 744 L457 744 L350 482 L280 482 L388 744 L340 744 L233 482 L137 482 L114 431 L213 431 L159 300 L62 300 L38 249 L138 249 L35 0 Z M206 300 L261 431 L330 431 L276 300 L206 300 Z " />
<glyph glyph-name="dollar" unicode="&#x24;" horiz-adv-x="416" d="M162 -94 L211 -94 L226 2 C327 18 401 102 416 197 C435 317 371 364 306 404 C240 444 174 478 189 572 C199 639 250 690 322 690 C359 690 392 675 420 656 L464 709 C431 734 390 751 345 754 L359 840 L310 840 L296 752 C194 734 135 660 120 566 C102 457 163 405 245 354 C307 316 362 282 348 196 C337 127 282 64 206 64 C163 64 129 89 102 114 L51 65 C83 26 123 7 177 0 L162 -94 Z " />
<glyph glyph-name="percent" unicode="&#x25;" horiz-adv-x="521" d="M464 376 C374 376 352 254 341 183 C330 112 312 -10 402 -10 C492 -10 514 112 525 183 C536 254 554 376 464 376 L464 376 Z M458 338 C505 338 493 244 483 183 C473 122 455 28 408 28 C361 28 373 122 383 183 C393 244 411 338 458 338 L458 338 Z M238 764 C148 764 127 642 115 571 C104 500 87 378 177 378 C267 378 288 500 299 571 C311 642 328 764 238 764 L238 764 Z M232 726 C279 726 267 632 257 571 C248 510 230 416 183 416 C136 416 148 510 157 571 C167 632 185 726 232 726 L232 726 Z M560 754 L528 754 L81 0 L115 0 L560 754 Z " />
<glyph glyph-name="ampersand" unicode="&#x26;" horiz-adv-x="529" d="M368 98 C331 68 296 54 259 53 C189 58 160 131 170 197 C179 255 224 310 270 351 L368 98 Z M402 0 L475 0 L443 92 L522 169 L482 215 L476 208 L420 150 L329 400 L336 405 C402 457 482 524 495 609 C509 694 461 754 379 754 C300 754 223 688 210 604 C200 540 225 472 246 417 L248 411 C175 356 117 285 103 198 C87 92 138 -10 252 -10 C298 -10 346 9 386 41 L402 0 Z M303 461 C287 504 268 552 277 603 C284 653 321 691 371 691 C412 691 436 654 429 613 C419 550 359 491 306 454 L303 461 Z " />
<glyph glyph-name="quotesingle" unicode="&#x27;" horiz-adv-x="224" d="M166 528 L225 528 L268 754 L193 754 L166 528 Z " />
<glyph glyph-name="parenleft" unicode="&#x28;" horiz-adv-x="300" d="M258 -67 C202 56 180 197 207 338 C225 478 291 620 387 743 L340 764 C239 633 170 485 151 338 C123 191 145 43 205 -88 L258 -67 Z " />
<glyph glyph-name="parenright" unicode="&#x29;" horiz-adv-x="300" d="M67 -88 C169 43 237 191 257 338 C284 485 261 633 202 764 L149 743 C205 620 227 478 201 338 C182 197 116 56 20 -67 L67 -88 Z " />
<glyph glyph-name="asterisk" unicode="&#x2a;" horiz-adv-x="415" d="M283 603 L147 650 L128 612 L264 565 L156 443 L185 419 L293 541 L362 419 L399 443 L329 565 L481 612 L474 650 L323 603 L346 754 L306 754 L283 603 Z " />
<glyph glyph-name="plus" unicode="&#x2b;" horiz-adv-x="444" d="M234 231 L199 11 L250 11 L285 231 L461 231 L469 282 L293 282 L327 501 L276 501 L242 282 L66 282 L58 231 L234 231 Z " />
<glyph glyph-name="comma" unicode="&#x2c;" horiz-adv-x="208" d="M178 62 L112 94 L-2 -138 L42 -161 L178 62 Z " />
<glyph glyph-name="hyphen" unicode="&#x2d;" horiz-adv-x="156" d="M44 280 L200 280 L213 359 L57 359 L44 280 Z " />
<glyph glyph-name="period" unicode="&#x2e;" horiz-adv-x="208" d="M119 94 C91 94 64 71 60 43 C55 15 75 -8 103 -8 C131 -8 157 15 162 43 C166 71 147 94 119 94 L119 94 Z " />
<glyph glyph-name="slash" unicode="&#x2f;" horiz-adv-x="464" d="M610 800 L550 800 L-52 -216 L9 -216 L610 800 Z " />
<glyph glyph-name="zero" unicode="0" horiz-adv-x="416" d="M329 764 C165 764 122 525 99 377 C75 229 42 -10 206 -10 C370 -10 413 229 437 377 C460 525 493 764 329 764 L329 764 Z M319 700 C416 700 390 513 369 377 C347 241 314 54 217 54 C120 54 145 241 167 377 C188 513 222 700 319 700 L319 700 Z " />
<glyph glyph-name="one" unicode="1" horiz-adv-x="416" d="M372 754 L220 754 L195 688 L294 688 L185 0 L253 0 L372 754 Z " />
<glyph glyph-name="two" unicode="2" horiz-adv-x="416" d="M361 62 L156 62 L300 283 C363 377 437 484 454 591 C469 689 432 764 326 764 C198 764 157 651 141 548 L209 548 L211 564 C221 623 245 700 320 700 C383 700 395 648 386 596 C371 499 296 394 241 308 L42 0 L351 0 L361 62 Z " />
<glyph glyph-name="three" unicode="3" horiz-adv-x="416" d="M213 381 C324 383 343 317 327 217 C318 157 297 54 215 54 C139 54 136 123 145 185 L149 207 L82 207 L76 174 C59 67 89 -10 206 -10 C332 -10 377 102 393 205 C406 283 410 385 331 417 C407 448 434 522 445 592 C460 690 428 764 320 764 C215 764 160 668 149 578 L217 578 C226 635 242 700 314 700 C378 700 385 644 376 586 C358 473 321 445 215 445 L203 445 L193 381 L213 381 Z " />
<glyph glyph-name="four" unicode="4" horiz-adv-x="416" d="M429 754 L363 754 L85 274 L74 203 L274 203 L242 0 L310 0 L342 203 L398 203 L408 263 L352 263 L429 754 Z M284 263 L150 263 L351 643 L354 643 L320 492 L284 263 Z " />
<glyph glyph-name="five" unicode="5" horiz-adv-x="416" d="M457 754 L233 754 L125 364 C158 382 193 394 229 394 C326 394 341 307 328 227 C318 161 278 58 192 58 C150 58 118 78 90 102 L60 33 C92 5 137 -10 183 -10 C312 -10 378 116 396 226 C413 334 387 462 260 462 L215 458 L280 692 L448 692 L457 754 Z " />
<glyph glyph-name="six" unicode="6" horiz-adv-x="416" d="M418 754 L345 754 L195 492 C142 400 101 310 85 209 C68 102 84 -10 212 -10 C335 -10 379 104 395 205 C409 289 406 428 296 428 C266 428 241 418 217 401 L215 403 L418 754 Z M154 212 C163 269 190 367 265 367 C342 367 338 273 329 215 C321 162 302 54 222 54 C141 54 145 155 154 212 L154 212 Z " />
<glyph glyph-name="seven" unicode="7" horiz-adv-x="416" d="M176 754 L167 692 L384 692 L61 0 L135 0 L486 754 L176 754 Z " />
<glyph glyph-name="eight" unicode="8" horiz-adv-x="416" d="M216 54 C137 54 142 155 151 215 C161 275 188 386 270 386 C349 386 342 279 333 221 C323 159 298 54 216 54 L216 54 Z M347 417 C417 455 441 514 453 585 C467 675 440 764 337 764 C230 764 173 674 158 580 C147 513 156 452 210 417 C122 385 93 277 81 200 C65 100 86 -10 203 -10 C330 -10 383 107 400 214 C412 289 415 379 347 417 L347 417 Z M284 450 C214 450 218 531 226 584 C234 634 258 700 322 700 C390 700 391 628 383 575 C375 523 351 450 284 450 L284 450 Z " />
<glyph glyph-name="nine" unicode="9" horiz-adv-x="416" d="M116 0 L189 0 L339 262 C391 354 433 445 449 545 C466 652 450 764 322 764 C237 764 164 704 139 550 C131 496 114 327 239 327 C269 327 292 336 317 353 L319 351 L116 0 Z M313 700 C393 700 390 599 381 542 C372 486 344 388 269 388 C192 388 196 482 206 540 C214 596 233 700 313 700 L313 700 Z " />
<glyph glyph-name="colon" unicode="&#x3a;" horiz-adv-x="208" d="M187 521 C159 521 132 498 127 470 C123 442 142 419 170 419 C198 419 225 442 229 470 C234 498 215 521 187 521 L187 521 Z M119 94 C91 94 64 71 60 43 C55 15 75 -8 103 -8 C131 -8 157 15 162 43 C166 71 147 94 119 94 L119 94 Z " />
<glyph glyph-name="semicolon" unicode="&#x3b;" horiz-adv-x="208" d="M167 62 L101 94 L-13 -138 L31 -161 L167 62 Z M188 521 C160 521 133 498 128 470 C124 442 143 419 171 419 C199 419 226 442 230 470 C235 498 216 521 188 521 L188 521 Z " />
<glyph glyph-name="less" unicode="&#x3c;" horiz-adv-x="444" d="M58 234 L424 -1 L433 55 L116 256 L116 261 L496 456 L505 512 L65 278 L58 234 Z " />
<glyph glyph-name="equal" unicode="&#x3d;" horiz-adv-x="444" d="M483 371 L80 371 L72 320 L475 320 L483 371 Z M455 193 L52 193 L43 142 L446 142 L455 193 Z " />
<glyph glyph-name="greater" unicode="&#x3e;" horiz-adv-x="444" d="M468 277 L102 512 L93 456 L410 255 L410 250 L30 55 L21 -1 L461 233 L468 277 Z " />
<glyph glyph-name="question" unicode="&#x3f;" horiz-adv-x="436" d="M180 189 L245 189 L274 371 C405 372 425 499 440 596 C454 683 448 764 343 764 C227 764 200 687 184 590 L180 563 L245 563 L249 590 C257 635 270 703 330 703 C388 703 381 644 372 585 C349 443 332 432 240 432 L218 432 L180 189 Z M141 43 C136 15 156 -8 184 -8 C212 -8 238 15 243 43 C247 71 228 94 200 94 C172 94 145 71 141 43 L141 43 Z " />
<glyph glyph-name="at" unicode="&#x40;" horiz-adv-x="800" d="M521 561 C591 561 617 497 586 435 L507 278 C486 241 432 195 364 195 C312 195 273 237 284 310 C299 405 409 561 521 561 L521 561 Z M638 540 C624 586 579 609 529 609 C374 609 250 440 228 303 C214 217 251 148 341 148 C386 148 439 161 487 201 C483 164 521 148 558 148 C703 148 832 322 851 441 C881 631 733 764 543 764 C323 764 114 593 80 381 C38 164 178 -10 419 -10 C557 -10 707 62 793 181 L739 181 C658 97 537 43 428 43 C234 43 96 194 132 373 C160 552 340 711 532 711 C689 711 825 612 799 451 C783 347 666 194 577 194 C514 194 544 246 561 280 L716 589 L660 589 L638 540 Z " />
<glyph glyph-name="A" unicode="A" horiz-adv-x="365" d="M333 754 L267 754 L0 0 L75 0 L127 155 L287 155 L290 0 L365 0 L333 754 Z M148 216 L238 505 C254 556 267 608 282 659 L286 659 C284 608 280 556 281 505 L285 216 L148 216 Z " />
<glyph glyph-name="B" unicode="B" horiz-adv-x="398" d="M179 754 L60 0 L151 0 C303 0 365 50 390 207 C403 291 398 361 313 390 C394 430 417 493 429 567 C457 742 376 754 277 754 L179 754 Z M259 694 C349 694 375 681 356 562 C332 411 273 421 216 421 L197 421 L240 694 L259 694 Z M208 361 C297 361 337 329 317 202 C300 94 264 60 159 60 L140 60 L187 361 L208 361 Z " />
<glyph glyph-name="C" unicode="C" horiz-adv-x="367" d="M352 92 C322 73 287 58 253 58 C119 58 156 291 170 379 C192 519 237 696 359 696 C394 696 417 682 442 663 L454 740 C434 757 397 764 369 764 C163 764 113 472 93 350 C73 221 62 -10 239 -10 C272 -10 311 3 340 21 L352 92 Z " />
<glyph glyph-name="D" unicode="D" horiz-adv-x="412" d="M60 0 L141 0 C326 0 387 82 434 377 C491 736 399 754 255 754 L179 754 L60 0 Z M239 690 L251 690 C384 690 403 636 362 377 C327 159 295 64 160 64 L140 64 L239 690 Z " />
<glyph glyph-name="E" unicode="E" horiz-adv-x="338" d="M416 754 L179 754 L60 0 L297 0 L307 64 L140 64 L187 360 L349 360 L359 424 L197 424 L239 690 L406 690 L416 754 Z " />
<glyph glyph-name="F" unicode="F" horiz-adv-x="343" d="M420 754 L179 754 L60 0 L130 0 L187 360 L349 360 L359 424 L197 424 L239 690 L410 690 L420 754 Z " />
<glyph glyph-name="G" unicode="G" horiz-adv-x="412" d="M255 334 L357 334 L348 277 C322 116 306 58 227 58 C154 58 129 122 174 401 C195 534 228 695 332 696 C387 696 397 640 398 595 L472 622 C466 704 430 764 340 764 C180 764 129 573 101 395 C63 157 51 -10 210 -10 C366 -10 396 140 415 259 L437 398 L265 398 L255 334 Z " />
<glyph glyph-name="H" unicode="H" horiz-adv-x="433" d="M492 754 L422 754 L375 453 L202 453 L249 754 L179 754 L60 0 L130 0 L192 389 L365 389 L303 0 L373 0 L492 754 Z " />
<glyph glyph-name="I" unicode="I" horiz-adv-x="190" d="M249 754 L179 754 L60 0 L130 0 L249 754 Z " />
<glyph glyph-name="J" unicode="J" horiz-adv-x="262" d="M321 754 L251 754 L152 128 C146 87 134 49 89 49 C62 49 42 64 25 82 L13 9 C38 -4 63 -10 92 -10 C194 -10 209 47 224 141 L321 754 Z " />
<glyph glyph-name="K" unicode="K" horiz-adv-x="369" d="M479 754 L401 754 L197 412 L195 412 L249 754 L179 754 L60 0 L130 0 L190 380 L192 380 L282 0 L361 0 L254 395 L479 754 Z " />
<glyph glyph-name="L" unicode="L" horiz-adv-x="294" d="M249 754 L179 754 L60 0 L294 0 L304 64 L140 64 L249 754 Z " />
<glyph glyph-name="M" unicode="M" horiz-adv-x="562" d="M566 754 L506 754 L340 247 C326 204 316 160 305 117 L302 117 C302 142 304 167 304 192 L308 754 L248 754 L23 0 L91 0 L227 479 C240 527 248 578 257 627 L260 627 C260 603 258 580 258 556 L253 0 L310 0 L468 478 C485 528 494 577 508 627 L512 627 C510 603 507 580 505 556 L470 0 L539 0 L566 754 Z " />
<glyph glyph-name="N" unicode="N" horiz-adv-x="435" d="M493 754 L432 754 L353 252 C348 219 347 185 344 152 L341 152 C338 178 335 204 330 230 L240 754 L179 754 L60 0 L121 0 L194 458 C201 507 204 555 209 604 L213 604 C217 572 217 538 223 507 L313 0 L374 0 L493 754 Z " />
<glyph glyph-name="O" unicode="O" horiz-adv-x="446" d="M344 764 C184 764 128 568 98 377 C70 201 56 -10 221 -10 C396 -10 445 236 468 377 C494 543 514 764 344 764 L344 764 Z M333 696 C441 696 417 510 396 377 C375 244 340 58 232 58 C124 58 149 244 170 377 C191 510 226 701 333 696 L333 696 Z " />
<glyph glyph-name="P" unicode="P" horiz-adv-x="358" d="M130 0 L187 361 L205 361 C348 361 407 412 430 558 C460 744 365 754 257 754 L179 754 L60 0 L130 0 Z M239 690 L253 690 C351 690 375 662 358 558 C340 461 322 425 224 425 L197 425 L239 690 Z " />
<glyph glyph-name="Q" unicode="Q" horiz-adv-x="446" d="M283 73 C267 61 250 58 232 58 C161 58 129 118 170 377 C210 630 256 696 333 696 C441 696 418 515 395 371 C382 291 366 208 335 132 L296 213 L235 177 L283 73 Z M469 383 C488 508 521 764 342 764 C209 764 138 632 98 377 C49 68 114 -10 219 -10 C251 -10 287 -4 313 15 L348 -56 L408 -20 L367 65 C432 159 457 308 469 383 L469 383 Z " />
<glyph glyph-name="R" unicode="R" horiz-adv-x="381" d="M130 0 L188 369 L190 369 L292 0 L366 0 L257 368 C379 372 415 466 430 562 C459 746 359 754 254 754 L179 754 L60 0 L130 0 Z M239 690 L253 690 C342 690 376 678 358 559 C342 460 320 426 222 426 L197 426 L239 690 Z " />
<glyph glyph-name="S" unicode="S" horiz-adv-x="389" d="M437 724 C405 749 369 764 324 764 C213 764 135 665 119 564 C102 456 159 407 216 363 C273 318 332 279 317 191 C307 123 256 58 182 58 C134 58 96 85 70 119 L55 28 C85 2 126 -10 168 -10 C286 -10 374 94 391 204 C408 308 351 356 295 401 C236 445 179 486 193 574 C203 638 251 696 321 696 C369 696 398 669 423 635 L437 724 Z " />
<glyph glyph-name="T" unicode="T" horiz-adv-x="311" d="M423 754 L127 754 L117 690 L230 690 L121 0 L191 0 L300 690 L413 690 L423 754 Z " />
<glyph glyph-name="U" unicode="U" horiz-adv-x="430" d="M492 754 L422 754 L341 243 C322 118 304 58 224 58 C143 58 146 118 165 243 L246 754 L176 754 L95 239 C73 104 62 -10 213 -10 C360 -10 389 100 411 239 L492 754 Z " />
<glyph glyph-name="V" unicode="V" horiz-adv-x="389" d="M496 754 L425 754 L240 205 C235 187 223 137 214 103 L210 103 C212 137 215 186 214 205 L202 754 L130 754 L163 0 L225 0 L496 754 Z " />
<glyph glyph-name="W" unicode="W" horiz-adv-x="605" d="M706 754 L635 754 L478 250 C466 213 457 175 447 138 L443 138 C444 175 445 213 446 250 L453 754 L393 754 L227 250 C215 213 206 175 195 138 L191 138 C193 175 196 213 197 250 L209 754 L137 754 L138 0 L202 0 L370 508 C378 533 390 590 401 631 L405 631 C401 590 395 534 394 508 L390 0 L454 0 L706 754 Z " />
<glyph glyph-name="X" unicode="X" horiz-adv-x="402" d="M499 754 L424 754 L333 575 C310 530 288 483 272 435 L268 435 L217 754 L142 754 L227 383 L23 0 L98 0 L197 200 C216 240 237 280 250 321 L254 321 L305 0 L380 0 L300 383 L499 754 Z " />
<glyph glyph-name="Y" unicode="Y" horiz-adv-x="392" d="M492 754 L417 754 L304 504 C288 470 278 434 265 399 L261 399 C256 433 253 467 248 500 L213 754 L138 754 L217 330 L165 0 L235 0 L287 330 L492 754 Z " />
<glyph glyph-name="Z" unicode="Z" horiz-adv-x="335" d="M435 754 L158 754 L148 690 L337 690 L19 0 L295 0 L305 64 L115 64 L435 754 Z " />
<glyph glyph-name="bracketleft" unicode="&#x5b;" horiz-adv-x="300" d="M110 -116 L273 -116 L279 -74 L172 -74 L297 712 L404 712 L410 754 L247 754 L110 -116 Z " />
<glyph glyph-name="backslash" unicode="&#x5c;" horiz-adv-x="222" d="M281 -216 L342 -216 L62 800 L2 800 L281 -216 Z " />
<glyph glyph-name="bracketright" unicode="&#x5d;" horiz-adv-x="300" d="M291 754 L128 754 L122 712 L229 712 L104 -74 L-3 -74 L-9 -116 L154 -116 L291 754 Z " />
<glyph glyph-name="asciicircum" unicode="&#x5e;" horiz-adv-x="444" d="M320 754 L120 344 L167 344 L327 679 L329 679 L384 344 L431 344 L361 754 L320 754 Z " />
<glyph glyph-name="underscore" unicode="&#x5f;" horiz-adv-x="500" d="M-12 -75 L-20 -125 L480 -125 L488 -75 L-12 -75 Z " />
<glyph glyph-name="grave" unicode="&#x60;" horiz-adv-x="280" d="M218 750 L157 702 L269 585 L305 615 L218 750 Z " />
<glyph glyph-name="a" unicode="a" horiz-adv-x="349" d="M287 265 C261 104 240 45 177 45 C139 45 106 55 139 267 C153 354 175 468 247 468 C311 468 305 376 287 265 L287 265 Z M385 513 L320 513 L315 478 L313 478 C297 506 277 521 241 521 C117 521 90 377 71 262 C36 38 69 -8 151 -8 C188 -8 220 11 243 40 L245 40 L239 0 L304 0 L385 513 Z " />
<glyph glyph-name="b" unicode="b" horiz-adv-x="349" d="M186 45 C103 45 137 208 147 271 C154 317 171 468 250 468 C315 468 313 384 294 267 C266 91 239 45 186 45 L186 45 Z M45 0 L110 0 L116 40 L118 40 C133 11 159 -8 196 -8 C308 -8 340 132 360 262 C379 378 394 521 275 521 C238 521 211 507 188 478 L186 478 L237 800 L172 800 L45 0 Z " />
<glyph glyph-name="c" unicode="c" horiz-adv-x="278" d="M330 501 C311 514 287 521 263 521 C133 521 84 343 69 246 C55 158 58 -8 176 -8 C201 -8 232 2 254 18 L267 99 L265 99 C246 76 223 53 193 53 C116 53 129 204 137 255 C147 314 178 460 262 460 C287 460 305 443 318 426 L330 501 Z " />
<glyph glyph-name="d" unicode="d" horiz-adv-x="349" d="M287 265 C266 130 246 45 177 45 C94 45 132 219 139 267 C151 340 174 468 247 468 C307 468 306 382 287 265 L287 265 Z M239 0 L304 0 L431 800 L366 800 L315 478 L313 478 C297 506 277 521 241 521 C127 521 94 402 71 262 C49 122 44 -8 151 -8 C188 -8 220 11 243 40 L245 40 L239 0 Z " />
<glyph glyph-name="e" unicode="e" horiz-adv-x="343" d="M145 298 C152 344 185 460 247 460 C315 460 300 356 295 307 L294 298 L145 298 Z M351 243 L356 274 C371 364 377 521 257 521 C133 521 85 347 70 255 C54 152 47 -8 182 -8 C277 -8 323 96 337 174 L270 174 C263 133 242 53 185 53 C114 53 125 177 133 228 L135 243 L351 243 Z " />
<glyph glyph-name="f" unicode="f" horiz-adv-x="208" d="M286 513 L201 513 L225 666 C234 717 243 748 279 748 C298 748 311 737 323 726 L334 797 C318 805 298 808 279 808 C206 808 174 751 160 664 L136 513 L81 513 L72 453 L127 453 L55 0 L120 0 L192 453 L277 453 L286 513 Z " />
<glyph glyph-name="g" unicode="g" horiz-adv-x="354" d="M136 248 C166 436 200 468 247 468 C318 468 307 360 292 266 C274 154 255 53 186 53 C104 53 127 192 136 248 L136 248 Z M390 513 L325 513 L320 478 L318 478 C303 505 277 521 242 521 C123 521 86 354 72 268 C58 177 32 0 160 0 C194 0 223 11 249 36 L239 -24 C230 -79 226 -143 153 -143 C97 -143 91 -100 99 -52 L100 -43 L36 -43 L33 -62 C19 -150 53 -204 143 -204 C273 -204 291 -115 306 -19 L390 513 Z " />
<glyph glyph-name="h" unicode="h" horiz-adv-x="355" d="M237 800 L172 800 L45 0 L110 0 L163 333 C171 387 187 468 261 468 C310 468 314 436 301 356 L245 0 L310 0 L368 367 C380 439 388 521 294 521 C254 521 216 502 185 472 L237 800 Z " />
<glyph glyph-name="i" unicode="i" horiz-adv-x="155" d="M191 513 L126 513 L45 0 L110 0 L191 513 Z M231 665 C235 691 217 713 191 713 C164 713 138 691 134 665 C130 638 149 616 176 616 C202 616 227 638 231 665 L231 665 Z " />
<glyph glyph-name="j" unicode="j" horiz-adv-x="155" d="M191 513 L126 513 L15 -189 L80 -189 L191 513 Z M231 665 C235 691 217 713 191 713 C164 713 138 691 134 665 C130 638 149 616 176 616 C202 616 227 638 231 665 L231 665 Z " />
<glyph glyph-name="k" unicode="k" horiz-adv-x="351" d="M237 800 L172 800 L45 0 L110 0 L149 246 L151 246 L270 0 L351 0 L203 283 L392 513 L318 513 L160 305 L158 305 L237 800 Z " />
<glyph glyph-name="l" unicode="l" horiz-adv-x="155" d="M237 800 L172 800 L45 0 L110 0 L237 800 Z " />
<glyph glyph-name="m" unicode="m" horiz-adv-x="559" d="M191 513 L126 513 L45 0 L110 0 L158 305 C169 370 186 468 265 468 C318 468 313 414 305 366 L247 0 L312 0 L362 316 C372 381 388 468 465 468 C518 468 515 416 507 367 L449 0 L514 0 L572 369 C584 445 589 521 493 521 C446 521 410 498 377 460 C366 499 334 521 292 521 C253 521 214 500 186 470 L184 470 L191 513 Z " />
<glyph glyph-name="n" unicode="n" horiz-adv-x="355" d="M191 513 L126 513 L45 0 L110 0 L163 333 C171 387 187 468 261 468 C315 468 312 421 302 360 L245 0 L310 0 L368 367 C379 437 385 521 294 521 C254 521 216 502 185 472 L191 513 Z " />
<glyph glyph-name="o" unicode="o" horiz-adv-x="355" d="M260 521 C125 521 86 353 71 257 C55 160 41 -8 176 -8 C311 -8 349 160 365 257 C380 353 395 521 260 521 L260 521 Z M250 460 C328 460 305 306 298 257 C290 207 263 53 185 53 C107 53 130 207 138 257 C145 306 172 460 250 460 L250 460 Z " />
<glyph glyph-name="p" unicode="p" horiz-adv-x="349" d="M186 45 C115 45 131 172 147 271 C161 362 181 468 250 468 C325 468 306 341 293 262 C268 104 246 45 186 45 L186 45 Z M191 513 L126 513 L14 -196 L79 -196 L116 40 L118 40 C133 11 159 -8 196 -8 C315 -8 342 146 360 262 C377 366 394 521 275 521 C238 521 212 506 188 478 L186 478 L191 513 Z " />
<glyph glyph-name="q" unicode="q" horiz-adv-x="349" d="M177 45 C109 45 121 149 139 267 C159 392 186 468 247 468 C306 468 305 381 287 265 C266 134 245 45 177 45 L177 45 Z M385 513 L320 513 L315 478 L313 478 C297 506 277 521 241 521 C122 521 90 377 71 262 C53 147 34 -8 151 -8 C188 -8 220 11 243 40 L245 40 L208 -196 L273 -196 L385 513 Z " />
<glyph glyph-name="r" unicode="r" horiz-adv-x="205" d="M191 513 L126 513 L45 0 L110 0 L157 299 C170 381 188 446 255 446 L267 445 L280 521 C237 522 202 481 182 445 L180 445 L191 513 Z " />
<glyph glyph-name="s" unicode="s" horiz-adv-x="278" d="M318 488 C295 508 267 521 234 521 C157 521 97 467 85 390 C75 329 111 289 146 253 C182 216 218 182 210 131 C203 88 167 53 122 53 C83 53 60 77 39 103 L27 27 C49 7 83 -8 115 -8 C200 -8 265 57 278 139 C289 206 254 244 217 279 C182 313 144 343 152 392 C158 430 188 460 227 460 C263 460 289 435 304 408 L306 408 L318 488 Z " />
<glyph glyph-name="t" unicode="t" horiz-adv-x="210" d="M303 513 L218 513 L240 653 L175 653 L153 513 L98 513 L89 453 L144 453 L72 0 L137 0 L209 453 L294 453 L303 513 Z " />
<glyph glyph-name="u" unicode="u" horiz-adv-x="350" d="M122 513 L63 136 C49 49 83 -8 174 -8 C266 -8 317 50 331 136 L390 513 L325 513 L274 191 C262 121 248 53 182 53 C118 53 125 121 136 191 L187 513 L122 513 Z " />
<glyph glyph-name="v" unicode="v" horiz-adv-x="316" d="M390 513 L323 513 L207 192 C197 161 187 128 178 96 L174 96 C172 128 172 160 170 192 L155 513 L89 513 L125 0 L195 0 L390 513 Z " />
<glyph glyph-name="w" unicode="w" horiz-adv-x="504" d="M574 513 L508 513 L394 194 C382 161 373 127 363 94 L360 94 C360 115 361 137 361 158 L363 513 L297 513 L199 210 C187 171 177 133 166 94 L162 94 C161 133 159 171 159 210 L158 513 L92 513 L115 0 L181 0 L289 334 C299 365 306 396 314 427 L317 427 C316 409 313 390 313 372 L313 0 L380 0 L574 513 Z " />
<glyph glyph-name="x" unicode="x" horiz-adv-x="335" d="M401 513 L329 513 L269 402 C249 367 236 331 222 295 L218 295 C216 331 211 365 204 399 L180 513 L108 513 L174 262 L15 0 L88 0 L160 134 C176 162 190 191 199 221 L203 221 C203 191 210 163 216 135 L248 0 L320 0 L246 262 L401 513 Z " />
<glyph glyph-name="y" unicode="y" horiz-adv-x="332" d="M405 513 L337 513 L227 231 C210 187 195 143 179 99 L176 99 L155 513 L89 513 L132 14 L48 -196 L116 -196 L405 513 Z " />
<glyph glyph-name="z" unicode="z" horiz-adv-x="331" d="M292 60 L118 60 L397 513 L124 513 L115 453 L290 453 L15 0 L282 0 L292 60 Z " />
<glyph glyph-name="braceleft" unicode="&#x7b;" horiz-adv-x="300" d="M264 -79 L270 -46 C194 -40 185 -7 196 61 L218 202 C228 268 225 313 160 336 L161 339 C232 362 250 407 261 473 L283 614 C294 682 313 715 391 721 L396 754 L374 754 C280 754 243 716 226 609 L203 461 C198 428 194 400 161 377 C147 367 131 360 104 354 L99 321 C124 315 138 308 148 298 C175 275 169 247 164 214 L140 66 C124 -41 148 -79 242 -79 L264 -79 Z " />
<glyph glyph-name="bar" unicode="&#x7c;" horiz-adv-x="339" d="M201 872 L201 -290 L260 -290 L260 872 L201 872 Z " />
<glyph glyph-name="braceright" unicode="&#x7d;" horiz-adv-x="300" d="M206 214 C211 247 215 275 248 298 C262 308 278 315 303 321 L308 354 C285 360 271 367 261 377 C234 400 240 428 245 461 L268 609 C285 716 260 754 166 754 L144 754 L139 721 C215 715 224 682 213 614 L191 473 C180 407 184 362 249 339 L248 336 C177 313 158 268 148 202 L126 61 C115 -7 96 -40 18 -46 L12 -79 L34 -79 C128 -79 166 -41 182 66 L206 214 Z " />
<glyph glyph-name="asciitilde" unicode="&#x7e;" horiz-adv-x="444" d="M84 187 C106 216 133 253 175 253 C199 253 220 242 240 234 C265 224 313 202 343 202 C396 202 439 244 469 283 L441 317 C421 291 388 256 352 256 C332 256 304 269 274 282 C245 295 213 308 184 308 C128 308 88 263 56 222 L84 187 Z " />
<glyph glyph-name="uni00A0" unicode="&#xa0;" horiz-adv-x="208" d="" />
<glyph glyph-name="exclamdown" unicode="&#xa1;" horiz-adv-x="343" d="M264 372 L197 372 L107 -193 L174 -193 L264 372 Z M304 518 C308 546 289 569 261 569 C233 569 206 546 202 518 C198 490 217 467 245 467 C273 467 300 490 304 518 L304 518 Z " />
<glyph glyph-name="cent" unicode="&#xa2;" horiz-adv-x="416" d="M373 739 L324 739 L310 649 C199 622 159 470 145 378 C130 285 129 159 227 127 L211 28 L260 28 L276 127 C295 131 314 138 330 150 L343 231 L341 231 C322 208 299 185 269 185 C193 185 206 336 214 387 C224 446 255 592 338 592 C363 592 381 575 394 558 L406 633 C393 643 377 648 359 651 L373 739 Z " />
<glyph glyph-name="sterling" unicode="&#xa3;" horiz-adv-x="416" d="M198 303 C212 276 215 236 210 205 C205 170 191 143 167 114 C162 115 156 116 151 116 C105 116 64 76 40 36 L92 1 C103 24 123 49 149 49 C167 49 189 27 203 18 C229 -1 252 -21 289 -21 C346 -21 391 29 403 85 L347 103 C340 78 328 44 297 43 C268 44 241 80 219 94 C250 126 274 179 281 220 C285 249 282 276 274 303 L368 303 L375 350 L257 350 C230 418 195 491 208 573 C218 638 257 700 329 700 C391 700 411 644 402 581 L472 594 C484 685 436 764 344 764 C232 764 156 677 139 569 C126 488 151 416 181 350 L100 350 L93 303 L198 303 Z " />
<glyph glyph-name="currency" unicode="&#xa4;" horiz-adv-x="416" d="M3 104 L43 56 L89 95 C124 67 163 50 212 50 C263 50 313 65 359 95 L392 56 L446 104 L413 142 C448 183 469 220 477 271 C485 325 480 367 456 411 L501 450 L462 497 L417 459 C380 487 342 503 292 503 C242 503 191 489 147 459 L113 497 L58 450 L91 411 C53 368 35 328 27 275 C18 224 26 184 48 142 L3 104 Z M282 444 C371 445 431 366 419 278 C402 183 317 111 224 109 C136 111 72 185 86 275 C102 372 187 445 282 444 L282 444 Z " />
<glyph glyph-name="yen" unicode="&#xa5;" horiz-adv-x="416" d="M501 754 L428 754 L323 523 L275 399 L273 399 L225 754 L152 754 L206 468 L92 468 L85 425 L214 425 L227 348 L73 348 L66 305 L226 305 L178 0 L246 0 L294 305 L445 305 L452 348 L305 348 L341 425 L464 425 L471 468 L363 468 L501 754 Z " />
<glyph glyph-name="brokenbar" unicode="&#xa6;" horiz-adv-x="339" d="M201 785 L201 378 L260 378 L260 785 L201 785 Z M201 203 L201 -203 L260 -203 L260 203 L201 203 Z " />
<glyph glyph-name="section" unicode="&#xa7;" horiz-adv-x="415" d="M347 268 C337 201 312 138 242 125 L216 138 C172 161 143 202 155 279 C165 344 194 423 279 427 L299 420 C343 398 360 348 347 268 L347 268 Z M173 -203 C257 -203 327 -137 340 -54 C353 23 327 65 285 91 L286 93 C358 116 400 192 415 282 C430 380 399 436 306 491 C258 519 216 549 226 611 C234 660 269 705 323 705 C367 705 389 674 387 633 L452 633 C462 708 411 764 335 764 C247 764 180 698 166 613 C156 547 176 503 227 474 L246 463 L246 461 C150 445 103 363 90 277 C76 188 98 121 193 76 C248 50 292 18 280 -54 C273 -102 236 -144 185 -144 C133 -144 116 -109 120 -61 L55 -61 C46 -140 90 -203 173 -203 L173 -203 Z " />
<glyph glyph-name="dieresis" unicode="&#xa8;" horiz-adv-x="280" d="M129 663 C125 638 143 617 168 617 C193 617 217 638 221 663 C225 688 207 709 182 709 C157 709 133 688 129 663 L129 663 Z M269 663 C265 638 283 617 308 617 C333 617 357 638 361 663 C365 688 347 709 322 709 C297 709 273 688 269 663 L269 663 Z " />
<glyph glyph-name="copyright" unicode="&#xa9;" horiz-adv-x="800" d="M399 -10 C600 -10 791 163 825 378 C858 590 723 764 522 764 C321 764 129 590 96 378 C62 163 198 -10 399 -10 L399 -10 Z M408 43 C231 43 119 189 149 378 C178 559 337 711 514 711 C690 711 801 559 772 378 C742 189 584 43 408 43 L408 43 Z M576 307 C559 248 503 210 450 210 C361 210 321 294 335 382 C349 473 411 550 503 550 C557 550 599 517 599 457 L658 457 C658 549 598 603 511 603 C387 603 295 508 275 381 C255 255 321 157 442 157 C526 157 610 215 635 307 L576 307 Z " />
<glyph glyph-name="ordfeminine" unicode="&#xaa;" horiz-adv-x="300" d="M359 759 L311 759 L309 742 C298 757 282 764 262 764 C182 764 162 667 150 594 C136 508 131 421 205 421 C226 421 246 430 260 446 L262 446 L258 426 L306 426 L359 759 Z M290 598 C285 566 276 461 222 461 C186 461 186 508 202 606 C209 651 224 724 266 724 C314 724 294 628 290 598 L290 598 Z " />
<glyph glyph-name="guillemotleft" unicode="&#xab;" horiz-adv-x="376" d="M419 511 L379 535 L223 322 L310 103 L358 128 L282 322 L419 511 Z M292 511 L253 535 L96 322 L184 103 L231 128 L155 322 L292 511 Z " />
<glyph glyph-name="logicalnot" unicode="&#xac;" horiz-adv-x="444" d="M80 371 L72 320 L424 320 L389 104 L440 104 L483 371 L80 371 Z " />
<glyph glyph-name="uni00AD" unicode="&#xad;" horiz-adv-x="156" d="M44 280 L200 280 L213 359 L57 359 L44 280 Z " />
<glyph glyph-name="registered" unicode="&#xae;" horiz-adv-x="800" d="M399 -10 C600 -10 791 163 825 378 C858 590 723 764 522 764 C321 764 129 590 96 378 C62 163 198 -10 399 -10 L399 -10 Z M408 43 C231 43 119 189 149 378 C178 559 337 711 514 711 C690 711 801 559 772 378 C742 189 584 43 408 43 L408 43 Z M509 357 C585 359 649 394 663 479 C669 515 659 554 630 572 C601 592 565 594 529 594 L343 594 L275 161 L332 161 L363 357 L449 357 L540 161 L607 161 L509 357 Z M370 402 L393 549 L510 549 C558 549 614 541 604 480 C593 412 550 402 445 402 L370 402 Z " />
<glyph glyph-name="macron" unicode="&#xaf;" horiz-adv-x="280" d="M114 635 L369 635 L377 688 L122 688 L114 635 Z " />
<glyph glyph-name="degree" unicode="&#xb0;" horiz-adv-x="400" d="M321 764 C239 764 160 696 147 614 C134 532 191 464 273 464 C355 464 434 532 447 614 C460 696 403 764 321 764 L321 764 Z M315 724 C375 724 417 674 407 614 C398 554 340 504 280 504 C220 504 178 554 187 614 C197 674 255 724 315 724 L315 724 Z " />
<glyph glyph-name="plusminus" unicode="&#xb1;" horiz-adv-x="444" d="M242 281 L215 111 L266 111 L293 281 L469 281 L477 332 L301 332 L327 501 L276 501 L250 332 L74 332 L66 281 L242 281 Z M434 62 L31 62 L23 11 L426 11 L434 62 Z " />
<glyph glyph-name="twosuperior" unicode="&#xb2;" horiz-adv-x="250" d="M271 306 L278 349 L150 349 L240 476 C276 532 323 596 334 661 C343 719 318 764 249 764 C166 764 140 697 131 635 L180 635 L181 644 C187 680 202 723 246 723 C282 723 290 695 285 664 C276 605 233 542 198 491 L70 306 L271 306 Z " />
<glyph glyph-name="threesuperior" unicode="&#xb3;" horiz-adv-x="250" d="M175 300 C257 300 284 367 294 429 C301 476 304 537 252 556 C301 575 318 619 325 661 C334 720 312 764 242 764 C174 764 139 707 132 653 L181 653 C187 687 197 723 239 723 C275 723 281 692 275 658 C264 590 241 575 177 575 L169 575 L162 533 L175 533 C243 534 256 496 246 436 C240 400 228 341 180 341 C135 341 133 380 138 417 L140 430 L91 430 L88 410 C78 346 99 300 175 300 L175 300 Z " />
<glyph glyph-name="acute" unicode="&#xb4;" horiz-adv-x="280" d="M169 615 L197 585 L345 702 L300 750 L169 615 Z " />
<glyph glyph-name="mu" unicode="&#xb5;" horiz-adv-x="350" d="M324 513 L268 157 C254 72 241 45 192 45 C118 45 128 126 137 180 L189 513 L124 513 L12 -196 L77 -196 L114 41 C136 11 168 -8 208 -8 C302 -8 320 74 331 146 L389 513 L324 513 Z " />
<glyph glyph-name="paragraph" unicode="&#xb6;" horiz-adv-x="415" d="M186 -193 L232 -193 L376 712 L456 712 L312 -193 L358 -193 L508 754 L328 754 C167 754 113 682 97 582 C86 510 110 414 271 414 L283 414 L186 -193 Z " />
<glyph glyph-name="periodcentered" unicode="&#xb7;" horiz-adv-x="208" d="M151 303 C123 303 97 280 93 252 C88 224 107 201 135 201 C165 201 190 224 195 252 C199 280 181 303 151 303 L151 303 Z " />
<glyph glyph-name="cedilla" unicode="&#xb8;" horiz-adv-x="280" d="M182 -70 L134 -41 L26 -198 L63 -221 L182 -70 Z " />
<glyph glyph-name="onesuperior" unicode="&#xb9;" horiz-adv-x="250" d="M275 758 L173 758 L157 717 L220 717 L154 306 L203 306 L275 758 Z " />
<glyph glyph-name="ordmasculine" unicode="&#xba;" horiz-adv-x="300" d="M220 421 C307 421 333 528 343 593 C353 657 360 764 274 764 C186 764 157 660 146 593 C135 525 132 421 220 421 L220 421 Z M226 466 C180 466 189 549 196 593 C201 624 217 719 266 719 C312 719 297 620 293 593 C285 545 267 466 226 466 L226 466 Z " />
<glyph glyph-name="guillemotright" unicode="&#xbb;" horiz-adv-x="376" d="M119 511 L196 322 L58 128 L97 103 L255 322 L166 535 L119 511 Z M246 511 L324 322 L185 128 L225 103 L382 322 L294 535 L246 511 Z " />
<glyph glyph-name="onequarter" unicode="&#xbc;" horiz-adv-x="622" d="M618 452 L564 452 L389 164 L382 121 L516 121 L497 0 L546 0 L565 121 L602 121 L608 160 L571 160 L618 452 Z M522 160 L435 160 L563 386 L565 386 C558 356 548 320 544 295 L522 160 Z M604 754 L563 754 L117 0 L159 0 L604 754 Z M267 758 L165 758 L149 717 L212 717 L146 306 L195 306 L267 758 Z " />
<glyph glyph-name="onehalf" unicode="&#xbd;" horiz-adv-x="622" d="M275 758 L173 758 L157 717 L220 717 L154 306 L203 306 L275 758 Z M583 0 L590 43 L462 43 L552 170 C588 226 635 290 645 355 C654 413 630 458 561 458 C478 458 452 391 442 329 L491 329 L493 338 C498 374 513 417 557 417 C593 417 602 389 597 358 C587 299 544 236 509 185 L382 0 L583 0 Z M594 754 L553 754 L107 0 L149 0 L594 754 Z " />
<glyph glyph-name="threequarters" unicode="&#xbe;" horiz-adv-x="622" d="M522 160 L435 160 L563 386 L565 386 C558 356 550 320 544 295 L522 160 Z M644 754 L603 754 L157 0 L199 0 L644 754 Z M546 0 L565 121 L602 121 L608 160 L571 160 L618 452 L564 452 L389 164 L382 121 L516 121 L497 0 L546 0 Z M195 300 C277 300 304 367 314 429 C321 476 324 537 272 556 C321 575 338 619 345 661 C354 720 332 764 262 764 C194 764 159 707 152 653 L201 653 C207 687 217 723 259 723 C295 723 301 692 295 658 C284 590 261 575 197 575 L189 575 L182 533 L195 533 C263 534 276 496 266 436 C260 400 248 341 200 341 C155 341 153 380 158 417 L160 430 L111 430 L108 410 C98 346 119 300 195 300 L195 300 Z " />
<glyph glyph-name="questiondown" unicode="&#xbf;" horiz-adv-x="436" d="M347 372 L282 372 L253 190 C122 189 102 62 86 -35 C73 -122 79 -203 184 -203 C300 -203 327 -126 342 -29 L347 -2 L282 -2 L277 -29 C270 -74 257 -142 197 -142 C139 -142 146 -83 155 -24 C178 118 194 129 286 129 L308 129 L347 372 Z M384 518 C388 546 369 569 341 569 C313 569 286 546 282 518 C278 490 297 467 325 467 C353 467 380 490 384 518 L384 518 Z " />
<glyph glyph-name="Agrave" unicode="&#xc0;" horiz-adv-x="365" d="M333 754 L267 754 L0 0 L75 0 L127 155 L287 155 L290 0 L365 0 L333 754 Z M148 216 L238 505 C254 556 267 608 282 659 L286 659 C284 608 280 556 281 505 L285 216 L148 216 Z M294 961 L234 913 L345 796 L382 826 L294 961 Z " />
<glyph glyph-name="Aacute" unicode="&#xc1;" horiz-adv-x="365" d="M333 754 L267 754 L0 0 L75 0 L127 155 L287 155 L290 0 L365 0 L333 754 Z M148 216 L238 505 C254 556 267 608 282 659 L286 659 C284 608 280 556 281 505 L285 216 L148 216 Z M246 826 L273 796 L422 913 L376 961 L246 826 Z " />
<glyph glyph-name="Acircumflex" unicode="&#xc2;" horiz-adv-x="365" d="M333 754 L267 754 L0 0 L75 0 L127 155 L287 155 L290 0 L365 0 L333 754 Z M148 216 L238 505 C254 556 267 608 282 659 L286 659 C284 608 280 556 281 505 L285 216 L148 216 Z M332 954 L190 832 L218 796 L321 882 L397 796 L440 832 L332 954 Z " />
<glyph glyph-name="Atilde" unicode="&#xc3;" horiz-adv-x="365" d="M333 754 L267 754 L0 0 L75 0 L127 155 L287 155 L290 0 L365 0 L333 754 Z M148 216 L238 505 C254 556 267 608 282 659 L286 659 C284 608 280 556 281 505 L285 216 L148 216 Z M243 833 C245 849 251 866 272 866 C284 866 299 857 314 847 C331 838 348 828 368 828 C417 828 451 877 458 909 L399 909 C398 895 386 878 369 878 C348 878 310 914 279 914 C230 914 194 872 185 833 L243 833 Z " />
<glyph glyph-name="Adieresis" unicode="&#xc4;" horiz-adv-x="365" d="M333 754 L267 754 L0 0 L75 0 L127 155 L287 155 L290 0 L365 0 L333 754 Z M148 216 L238 505 C254 556 267 608 282 659 L286 659 C284 608 280 556 281 505 L285 216 L148 216 Z M205 874 C201 849 219 828 244 828 C269 828 293 849 297 874 C301 899 284 920 259 920 C234 920 209 899 205 874 L205 874 Z M345 874 C341 849 359 828 384 828 C409 828 433 849 437 874 C441 899 424 920 399 920 C374 920 349 899 345 874 L345 874 Z " />
<glyph glyph-name="Aring" unicode="&#xc5;" horiz-adv-x="365" d="M333 754 L267 754 L0 0 L75 0 L127 155 L287 155 L290 0 L365 0 L333 754 Z M148 216 L238 505 C254 556 267 608 282 659 L286 659 C284 608 280 556 281 505 L285 216 L148 216 Z M335 951 C285 951 237 911 229 861 C221 811 256 770 306 770 C356 770 402 811 410 861 C418 911 385 951 335 951 L335 951 Z M327 906 C352 906 369 886 365 861 C361 836 338 815 313 815 C288 815 270 836 274 861 C278 886 302 906 327 906 L327 906 Z " />
<glyph glyph-name="AE" unicode="&#xc6;" horiz-adv-x="531" d="M519 754 L271 754 L0 0 L75 0 L126 155 L297 155 L298 0 L531 0 L531 64 L372 64 L363 360 L519 360 L517 424 L361 424 L353 690 L520 690 L519 754 Z M147 216 L255 550 C269 591 283 633 297 674 L300 674 C297 633 293 591 293 550 L296 216 L147 216 Z " />
<glyph glyph-name="Ccedilla" unicode="&#xc7;" horiz-adv-x="367" d="M352 92 C322 73 287 58 253 58 C119 58 156 291 170 379 C192 519 237 696 359 696 C394 696 417 682 442 663 L454 740 C434 757 397 764 369 764 C163 764 113 472 93 350 C73 221 62 -10 239 -10 C272 -10 311 3 340 21 L352 92 Z M246 -70 L198 -41 L90 -198 L127 -221 L246 -70 Z " />
<glyph glyph-name="Egrave" unicode="&#xc8;" horiz-adv-x="338" d="M416 754 L179 754 L60 0 L297 0 L307 64 L140 64 L187 360 L349 360 L359 424 L197 424 L239 690 L406 690 L416 754 Z M280 961 L220 913 L331 796 L368 826 L280 961 Z " />
<glyph glyph-name="Eacute" unicode="&#xc9;" horiz-adv-x="338" d="M416 754 L179 754 L60 0 L297 0 L307 64 L140 64 L187 360 L349 360 L359 424 L197 424 L239 690 L406 690 L416 754 Z M262 826 L289 796 L438 913 L392 961 L262 826 Z " />
<glyph glyph-name="Ecircumflex" unicode="&#xca;" horiz-adv-x="338" d="M416 754 L179 754 L60 0 L297 0 L307 64 L140 64 L187 360 L349 360 L359 424 L197 424 L239 690 L406 690 L416 754 Z M318 954 L176 832 L204 796 L307 882 L383 796 L426 832 L318 954 Z " />
<glyph glyph-name="Edieresis" unicode="&#xcb;" horiz-adv-x="338" d="M416 754 L179 754 L60 0 L297 0 L307 64 L140 64 L187 360 L349 360 L359 424 L197 424 L239 690 L406 690 L416 754 Z M197 874 C193 849 211 828 236 828 C261 828 285 849 289 874 C293 899 276 920 251 920 C226 920 201 899 197 874 L197 874 Z M337 874 C333 849 351 828 376 828 C401 828 425 849 429 874 C433 899 416 920 391 920 C366 920 341 899 337 874 L337 874 Z " />
<glyph glyph-name="Igrave" unicode="&#xcc;" horiz-adv-x="190" d="M249 754 L179 754 L60 0 L130 0 L249 754 Z M206 961 L146 913 L257 796 L294 826 L206 961 Z " />
<glyph glyph-name="Iacute" unicode="&#xcd;" horiz-adv-x="190" d="M249 754 L179 754 L60 0 L130 0 L249 754 Z M158 826 L185 796 L334 913 L288 961 L158 826 Z " />
<glyph glyph-name="Icircumflex" unicode="&#xce;" horiz-adv-x="190" d="M249 754 L179 754 L60 0 L130 0 L249 754 Z M244 954 L102 832 L130 796 L233 882 L309 796 L352 832 L244 954 Z " />
<glyph glyph-name="Idieresis" unicode="&#xcf;" horiz-adv-x="190" d="M249 754 L179 754 L60 0 L130 0 L249 754 Z M117 874 C113 849 131 828 156 828 C181 828 205 849 209 874 C213 899 196 920 171 920 C146 920 121 899 117 874 L117 874 Z M257 874 C253 849 271 828 296 828 C321 828 345 849 349 874 C353 899 336 920 311 920 C286 920 261 899 257 874 L257 874 Z " />
<glyph glyph-name="Eth" unicode="&#xd0;" horiz-adv-x="412" d="M117 360 L60 0 L141 0 C326 0 387 82 435 385 C491 736 399 754 255 754 L179 754 L127 424 L55 424 L45 360 L117 360 Z M197 424 L239 690 L251 690 C384 690 403 636 359 358 C337 234 325 64 160 64 L140 64 L187 360 L255 360 L265 424 L197 424 Z " />
<glyph glyph-name="Ntilde" unicode="&#xd1;" horiz-adv-x="435" d="M493 754 L432 754 L353 252 C348 219 347 185 344 152 L341 152 C338 178 335 204 330 230 L240 754 L179 754 L60 0 L121 0 L194 458 C201 507 204 555 209 604 L213 604 C217 572 217 538 223 507 L313 0 L374 0 L493 754 Z M278 833 C280 849 286 866 307 866 C319 866 334 857 349 847 C366 838 383 828 403 828 C452 828 486 877 493 909 L434 909 C433 895 421 878 404 878 C383 878 345 914 314 914 C265 914 229 872 220 833 L278 833 Z " />
<glyph glyph-name="Ograve" unicode="&#xd2;" horiz-adv-x="446" d="M344 764 C184 764 128 568 98 377 C70 201 56 -10 221 -10 C396 -10 445 236 468 377 C494 543 514 764 344 764 L344 764 Z M333 696 C441 696 417 510 396 377 C375 244 340 58 232 58 C124 58 149 244 170 377 C191 510 226 701 333 696 L333 696 Z M319 961 L259 913 L370 796 L407 826 L319 961 Z " />
<glyph glyph-name="Oacute" unicode="&#xd3;" horiz-adv-x="446" d="M344 764 C184 764 128 568 98 377 C70 201 56 -10 221 -10 C396 -10 445 236 468 377 C494 543 514 764 344 764 L344 764 Z M333 696 C441 696 417 510 396 377 C375 244 340 58 232 58 C124 58 149 244 170 377 C191 510 226 701 333 696 L333 696 Z M301 826 L328 796 L477 913 L431 961 L301 826 Z " />
<glyph glyph-name="Ocircumflex" unicode="&#xd4;" horiz-adv-x="446" d="M344 764 C184 764 128 568 98 377 C70 201 56 -10 221 -10 C396 -10 445 236 468 377 C494 543 514 764 344 764 L344 764 Z M333 696 C441 696 417 510 396 377 C375 244 340 58 232 58 C124 58 149 244 170 377 C191 510 226 701 333 696 L333 696 Z M372 954 L230 832 L258 796 L361 882 L437 796 L480 832 L372 954 Z " />
<glyph glyph-name="Otilde" unicode="&#xd5;" horiz-adv-x="446" d="M344 764 C184 764 128 568 98 377 C70 201 56 -10 221 -10 C396 -10 445 236 468 377 C494 543 514 764 344 764 L344 764 Z M333 696 C441 696 417 510 396 377 C375 244 340 58 232 58 C124 58 149 244 170 377 C191 510 226 701 333 696 L333 696 Z M283 833 C285 849 291 866 312 866 C324 866 339 857 354 847 C371 838 388 828 408 828 C457 828 491 877 498 909 L439 909 C438 895 426 878 409 878 C388 878 350 914 319 914 C270 914 234 872 225 833 L283 833 Z " />
<glyph glyph-name="Odieresis" unicode="&#xd6;" horiz-adv-x="446" d="M344 764 C184 764 128 568 98 377 C70 201 56 -10 221 -10 C396 -10 445 236 468 377 C494 543 514 764 344 764 L344 764 Z M333 696 C441 696 417 510 396 377 C375 244 340 58 232 58 C124 58 149 244 170 377 C191 510 226 701 333 696 L333 696 Z M245 874 C241 849 259 828 284 828 C309 828 333 849 337 874 C341 899 324 920 299 920 C274 920 249 899 245 874 L245 874 Z M385 874 C381 849 399 828 424 828 C449 828 473 849 477 874 C481 899 464 920 439 920 C414 920 389 899 385 874 L385 874 Z " />
<glyph glyph-name="multiply" unicode="&#xd7;" horiz-adv-x="444" d="M257 220 L396 54 L438 90 L299 256 L491 422 L459 457 L268 292 L130 457 L88 421 L227 256 L35 91 L67 56 L257 220 Z " />
<glyph glyph-name="Oslash" unicode="&#xd8;" horiz-adv-x="446" d="M110 58 C132 12 170 -10 224 -10 C400 -10 449 256 468 377 C482 465 490 558 476 642 L539 742 L499 764 L456 697 C436 742 395 764 342 764 C239 764 147 686 99 383 C84 293 76 199 91 113 L26 12 L67 -10 L110 58 Z M411 548 L415 548 C412 506 403 421 396 377 C358 136 308 58 232 58 C188 58 168 90 160 129 L411 548 Z M153 204 L151 204 C155 262 161 319 170 377 C217 674 275 696 333 696 C379 696 399 663 409 629 L153 204 Z " />
<glyph glyph-name="Ugrave" unicode="&#xd9;" horiz-adv-x="430" d="M492 754 L422 754 L341 243 C322 118 304 58 224 58 C143 58 146 118 165 243 L246 754 L176 754 L95 239 C73 104 62 -10 213 -10 C360 -10 389 100 411 239 L492 754 Z M296 961 L236 913 L347 796 L384 826 L296 961 Z " />
<glyph glyph-name="Uacute" unicode="&#xda;" horiz-adv-x="430" d="M492 754 L422 754 L341 243 C322 118 304 58 224 58 C143 58 146 118 165 243 L246 754 L176 754 L95 239 C73 104 62 -10 213 -10 C360 -10 389 100 411 239 L492 754 Z M308 826 L335 796 L484 913 L438 961 L308 826 Z " />
<glyph glyph-name="Ucircumflex" unicode="&#xdb;" horiz-adv-x="430" d="M492 754 L422 754 L341 243 C322 118 304 58 224 58 C143 58 146 118 165 243 L246 754 L176 754 L95 239 C73 104 62 -10 213 -10 C360 -10 389 100 411 239 L492 754 Z M364 954 L222 832 L250 796 L353 882 L429 796 L472 832 L364 954 Z " />
<glyph glyph-name="Udieresis" unicode="&#xdc;" horiz-adv-x="430" d="M492 754 L422 754 L341 243 C322 118 304 58 224 58 C143 58 146 118 165 243 L246 754 L176 754 L95 239 C73 104 62 -10 213 -10 C360 -10 389 100 411 239 L492 754 Z M237 874 C233 849 251 828 276 828 C301 828 325 849 329 874 C333 899 316 920 291 920 C266 920 241 899 237 874 L237 874 Z M377 874 C373 849 391 828 416 828 C441 828 465 849 469 874 C473 899 456 920 431 920 C406 920 381 899 377 874 L377 874 Z " />
<glyph glyph-name="Yacute" unicode="&#xdd;" horiz-adv-x="392" d="M492 754 L417 754 L304 504 C288 470 278 434 265 399 L261 399 C256 433 253 467 248 500 L213 754 L138 754 L217 330 L165 0 L235 0 L287 330 L492 754 Z M289 826 L316 796 L465 913 L419 961 L289 826 Z " />
<glyph glyph-name="Thorn" unicode="&#xde;" horiz-adv-x="363" d="M130 0 L162 201 L180 201 C323 201 376 247 405 398 C434 584 330 594 224 594 L249 754 L179 754 L60 0 L130 0 Z M214 530 L228 530 C326 530 350 502 333 398 C315 301 297 265 199 265 L172 265 L214 530 Z " />
<glyph glyph-name="germandbls" unicode="&#xdf;" horiz-adv-x="368" d="M253 452 C315 449 338 424 312 260 C283 78 248 61 187 61 L179 61 L169 0 L183 0 C326 0 358 128 377 244 C388 316 411 451 331 482 C398 505 420 576 430 637 C445 731 421 808 316 808 C190 808 166 698 150 598 L136 513 L82 513 L73 452 L127 452 L55 0 L120 0 L216 606 C228 683 243 747 305 747 C373 747 368 672 360 620 C348 543 325 513 257 513 L250 513 L241 452 L253 452 Z " />
<glyph glyph-name="agrave" unicode="&#xe0;" horiz-adv-x="349" d="M287 265 C261 104 240 45 177 45 C139 45 106 55 139 267 C153 354 175 468 247 468 C311 468 305 376 287 265 L287 265 Z M385 513 L320 513 L315 478 L313 478 C297 506 277 521 241 521 C117 521 90 377 71 262 C36 38 69 -8 151 -8 C188 -8 220 11 243 40 L245 40 L239 0 L304 0 L385 513 Z M243 750 L182 702 L294 585 L330 615 L243 750 Z " />
<glyph glyph-name="aacute" unicode="&#xe1;" horiz-adv-x="349" d="M287 265 C261 104 240 45 177 45 C139 45 106 55 139 267 C153 354 175 468 247 468 C311 468 305 376 287 265 L287 265 Z M385 513 L320 513 L315 478 L313 478 C297 506 277 521 241 521 C117 521 90 377 71 262 C36 38 69 -8 151 -8 C188 -8 220 11 243 40 L245 40 L239 0 L304 0 L385 513 Z M224 615 L252 585 L400 702 L355 750 L224 615 Z " />
<glyph glyph-name="acircumflex" unicode="&#xe2;" horiz-adv-x="349" d="M287 265 C261 104 240 45 177 45 C139 45 106 55 139 267 C153 354 175 468 247 468 C311 468 305 376 287 265 L287 265 Z M385 513 L320 513 L315 478 L313 478 C297 506 277 521 241 521 C117 521 90 377 71 262 C36 38 69 -8 151 -8 C188 -8 220 11 243 40 L245 40 L239 0 L304 0 L385 513 Z M291 743 L148 621 L177 585 L279 671 L356 585 L398 621 L291 743 Z " />
<glyph glyph-name="atilde" unicode="&#xe3;" horiz-adv-x="349" d="M287 265 C261 104 240 45 177 45 C139 45 106 55 139 267 C153 354 175 468 247 468 C311 468 305 376 287 265 L287 265 Z M385 513 L320 513 L315 478 L313 478 C297 506 277 521 241 521 C117 521 90 377 71 262 C36 38 69 -8 151 -8 C188 -8 220 11 243 40 L245 40 L239 0 L304 0 L385 513 Z M202 622 C204 638 210 655 231 655 C243 655 257 646 273 636 C289 627 307 617 327 617 C376 617 409 666 417 698 L358 698 C356 684 345 667 328 667 C307 667 268 703 237 703 C188 703 153 661 144 622 L202 622 Z " />
<glyph glyph-name="adieresis" unicode="&#xe4;" horiz-adv-x="349" d="M287 265 C261 104 240 45 177 45 C139 45 106 55 139 267 C153 354 175 468 247 468 C311 468 305 376 287 265 L287 265 Z M385 513 L320 513 L315 478 L313 478 C297 506 277 521 241 521 C117 521 90 377 71 262 C36 38 69 -8 151 -8 C188 -8 220 11 243 40 L245 40 L239 0 L304 0 L385 513 Z M164 663 C160 638 178 617 203 617 C228 617 252 638 256 663 C260 688 242 709 217 709 C192 709 168 688 164 663 L164 663 Z M304 663 C300 638 318 617 343 617 C368 617 392 638 396 663 C400 688 382 709 357 709 C332 709 308 688 304 663 L304 663 Z " />
<glyph glyph-name="aring" unicode="&#xe5;" horiz-adv-x="349" d="M287 265 C261 104 240 45 177 45 C139 45 106 55 139 267 C153 354 175 468 247 468 C311 468 305 376 287 265 L287 265 Z M385 513 L320 513 L315 478 L313 478 C297 506 277 521 241 521 C117 521 90 377 71 262 C36 38 69 -8 151 -8 C188 -8 220 11 243 40 L245 40 L239 0 L304 0 L385 513 Z M298 769 C248 769 200 729 193 679 C185 629 219 588 269 588 C319 588 366 629 374 679 C381 729 348 769 298 769 L298 769 Z M291 724 C316 724 333 704 329 679 C325 654 301 633 276 633 C251 633 234 654 238 679 C242 704 266 724 291 724 L291 724 Z " />
<glyph glyph-name="ae" unicode="&#xe6;" horiz-adv-x="566" d="M364 298 C371 344 404 460 470 460 C538 460 526 356 519 307 L517 298 L364 298 Z M178 53 C116 53 113 120 121 171 C129 223 153 289 217 289 C287 289 290 216 282 164 C274 113 242 53 178 53 L178 53 Z M574 243 L579 274 C594 364 600 521 480 521 C426 521 379 481 353 425 L351 425 C339 491 296 521 235 521 C202 521 168 510 139 491 L128 420 C158 440 187 460 223 460 C313 460 316 385 305 313 L303 300 L301 300 C285 328 251 342 213 342 C118 342 71 257 58 174 C44 91 60 -8 159 -8 C214 -8 269 26 297 85 L299 85 C309 31 332 -8 405 -8 C500 -8 546 96 560 174 L493 174 L489 159 C480 118 461 53 408 53 C333 53 344 177 352 228 L354 243 L574 243 Z " />
<glyph glyph-name="ccedilla" unicode="&#xe7;" horiz-adv-x="278" d="M330 501 C311 514 287 521 263 521 C133 521 84 343 69 246 C55 158 58 -8 176 -8 C201 -8 232 2 254 18 L267 99 L265 99 C246 76 223 53 193 53 C116 53 129 204 137 255 C147 314 178 460 262 460 C287 460 305 443 318 426 L330 501 Z M191 -70 L143 -41 L35 -198 L72 -221 L191 -70 Z " />
<glyph glyph-name="egrave" unicode="&#xe8;" horiz-adv-x="343" d="M145 298 C152 344 185 460 247 460 C315 460 300 356 295 307 L294 298 L145 298 Z M351 243 L356 274 C371 364 377 521 257 521 C133 521 85 347 70 255 C54 152 47 -8 182 -8 C277 -8 323 96 337 174 L270 174 C263 133 242 53 185 53 C114 53 125 177 133 228 L135 243 L351 243 Z M240 750 L179 702 L291 585 L327 615 L240 750 Z " />
<glyph glyph-name="eacute" unicode="&#xe9;" horiz-adv-x="343" d="M145 298 C152 344 185 460 247 460 C315 460 300 356 295 307 L294 298 L145 298 Z M351 243 L356 274 C371 364 377 521 257 521 C133 521 85 347 70 255 C54 152 47 -8 182 -8 C277 -8 323 96 337 174 L270 174 C263 133 242 53 185 53 C114 53 125 177 133 228 L135 243 L351 243 Z M221 615 L249 585 L397 702 L352 750 L221 615 Z " />
<glyph glyph-name="ecircumflex" unicode="&#xea;" horiz-adv-x="343" d="M145 298 C152 344 185 460 247 460 C315 460 300 356 295 307 L294 298 L145 298 Z M351 243 L356 274 C371 364 377 521 257 521 C133 521 85 347 70 255 C54 152 47 -8 182 -8 C277 -8 323 96 337 174 L270 174 C263 133 242 53 185 53 C114 53 125 177 133 228 L135 243 L351 243 Z M288 743 L145 621 L174 585 L276 671 L353 585 L395 621 L288 743 Z " />
<glyph glyph-name="edieresis" unicode="&#xeb;" horiz-adv-x="343" d="M145 298 C152 344 185 460 247 460 C315 460 300 356 295 307 L294 298 L145 298 Z M351 243 L356 274 C371 364 377 521 257 521 C133 521 85 347 70 255 C54 152 47 -8 182 -8 C277 -8 323 96 337 174 L270 174 C263 133 242 53 185 53 C114 53 125 177 133 228 L135 243 L351 243 Z M161 663 C157 638 175 617 200 617 C225 617 249 638 253 663 C257 688 239 709 214 709 C189 709 165 688 161 663 L161 663 Z M301 663 C297 638 315 617 340 617 C365 617 389 638 393 663 C397 688 379 709 354 709 C329 709 305 688 301 663 L301 663 Z " />
<glyph glyph-name="igrave" unicode="&#xec;" horiz-adv-x="155" d="M191 513 L126 513 L45 0 L110 0 L191 513 Z M156 750 L95 702 L207 585 L243 615 L156 750 Z " />
<glyph glyph-name="iacute" unicode="&#xed;" horiz-adv-x="155" d="M191 513 L126 513 L45 0 L110 0 L191 513 Z M107 615 L135 585 L283 702 L238 750 L107 615 Z " />
<glyph glyph-name="icircumflex" unicode="&#xee;" horiz-adv-x="155" d="M191 513 L126 513 L45 0 L110 0 L191 513 Z M194 743 L51 621 L80 585 L182 671 L259 585 L301 621 L194 743 Z " />
<glyph glyph-name="idieresis" unicode="&#xef;" horiz-adv-x="155" d="M191 513 L126 513 L45 0 L110 0 L191 513 Z M67 663 C63 638 81 617 106 617 C131 617 155 638 159 663 C163 688 145 709 120 709 C95 709 71 688 67 663 L67 663 Z M207 663 C203 638 221 617 246 617 C271 617 295 638 299 663 C303 688 285 709 260 709 C235 709 211 688 207 663 L207 663 Z " />
<glyph glyph-name="eth" unicode="&#xf0;" horiz-adv-x="354" d="M298 257 C274 138 248 53 185 53 C117 53 124 172 138 257 C151 341 182 464 250 464 C327 464 313 351 298 257 L298 257 Z M184 578 L257 619 C274 585 288 545 300 501 C282 510 270 512 259 512 C135 512 85 345 71 257 C55 160 41 -8 176 -8 C311 -8 343 158 365 257 C389 396 371 534 313 651 L390 694 L368 733 L292 691 C271 730 243 766 213 799 L157 778 C186 744 214 706 238 660 L162 618 L184 578 Z " />
<glyph glyph-name="ntilde" unicode="&#xf1;" horiz-adv-x="355" d="M191 513 L126 513 L45 0 L110 0 L163 333 C171 387 187 468 261 468 C315 468 312 421 302 360 L245 0 L310 0 L368 367 C379 437 385 521 294 521 C254 521 216 502 185 472 L191 513 Z M205 622 C207 638 213 655 234 655 C246 655 260 646 276 636 C292 627 310 617 330 617 C379 617 412 666 420 698 L361 698 C359 684 348 667 331 667 C310 667 271 703 240 703 C191 703 156 661 147 622 L205 622 Z " />
<glyph glyph-name="ograve" unicode="&#xf2;" horiz-adv-x="355" d="M260 521 C125 521 86 353 71 257 C55 160 41 -8 176 -8 C311 -8 349 160 365 257 C380 353 395 521 260 521 L260 521 Z M250 460 C328 460 305 306 298 257 C290 207 263 53 185 53 C107 53 130 207 138 257 C145 306 172 460 250 460 L250 460 Z M236 750 L175 702 L287 585 L323 615 L236 750 Z " />
<glyph glyph-name="oacute" unicode="&#xf3;" horiz-adv-x="355" d="M260 521 C125 521 86 353 71 257 C55 160 41 -8 176 -8 C311 -8 349 160 365 257 C380 353 395 521 260 521 L260 521 Z M250 460 C328 460 305 306 298 257 C290 207 263 53 185 53 C107 53 130 207 138 257 C145 306 172 460 250 460 L250 460 Z M227 615 L255 585 L403 702 L358 750 L227 615 Z " />
<glyph glyph-name="ocircumflex" unicode="&#xf4;" horiz-adv-x="355" d="M260 521 C125 521 86 353 71 257 C55 160 41 -8 176 -8 C311 -8 349 160 365 257 C380 353 395 521 260 521 L260 521 Z M250 460 C328 460 305 306 298 257 C290 207 263 53 185 53 C107 53 130 207 138 257 C145 306 172 460 250 460 L250 460 Z M294 743 L151 621 L180 585 L282 671 L359 585 L401 621 L294 743 Z " />
<glyph glyph-name="otilde" unicode="&#xf5;" horiz-adv-x="355" d="M260 521 C125 521 86 353 71 257 C55 160 41 -8 176 -8 C311 -8 349 160 365 257 C380 353 395 521 260 521 L260 521 Z M250 460 C328 460 305 306 298 257 C290 207 263 53 185 53 C107 53 130 207 138 257 C145 306 172 460 250 460 L250 460 Z M205 622 C207 638 213 655 234 655 C246 655 260 646 276 636 C292 627 310 617 330 617 C379 617 412 666 420 698 L361 698 C359 684 348 667 331 667 C310 667 271 703 240 703 C191 703 156 661 147 622 L205 622 Z " />
<glyph glyph-name="odieresis" unicode="&#xf6;" horiz-adv-x="355" d="M260 521 C125 521 86 353 71 257 C55 160 41 -8 176 -8 C311 -8 349 160 365 257 C380 353 395 521 260 521 L260 521 Z M250 460 C328 460 305 306 298 257 C290 207 263 53 185 53 C107 53 130 207 138 257 C145 306 172 460 250 460 L250 460 Z M167 663 C163 638 181 617 206 617 C231 617 255 638 259 663 C263 688 245 709 220 709 C195 709 171 688 167 663 L167 663 Z M307 663 C303 638 321 617 346 617 C371 617 395 638 399 663 C403 688 385 709 360 709 C335 709 311 688 307 663 L307 663 Z " />
<glyph glyph-name="divide" unicode="&#xf7;" horiz-adv-x="444" d="M66 282 L58 231 L461 231 L469 282 L66 282 Z M303 502 C275 502 248 479 243 451 C239 423 258 400 286 400 C314 400 341 423 345 451 C350 479 331 502 303 502 L303 502 Z M241 113 C213 113 186 90 182 62 C177 34 197 11 225 11 C253 11 279 34 284 62 C288 90 269 113 241 113 L241 113 Z " />
<glyph glyph-name="oslash" unicode="&#xf8;" horiz-adv-x="355" d="M304 349 L306 349 C303 318 302 287 298 256 C290 206 262 53 188 53 C157 53 140 76 133 103 L304 349 Z M130 162 L128 162 C131 193 133 225 138 256 C146 311 172 460 253 460 C280 460 297 436 301 412 L130 162 Z M49 -4 L84 43 C104 10 139 -8 180 -8 C312 -8 349 160 365 256 C374 314 379 375 368 429 L419 499 L388 521 L351 472 C333 503 302 521 264 521 C131 521 87 358 71 256 C62 200 58 142 69 88 L17 17 L49 -4 Z " />
<glyph glyph-name="ugrave" unicode="&#xf9;" horiz-adv-x="350" d="M122 513 L63 136 C49 49 83 -8 174 -8 C266 -8 317 50 331 136 L390 513 L325 513 L274 191 C262 121 248 53 182 53 C118 53 125 121 136 191 L187 513 L122 513 Z M233 750 L172 702 L284 585 L320 615 L233 750 Z " />
<glyph glyph-name="uacute" unicode="&#xfa;" horiz-adv-x="350" d="M122 513 L63 136 C49 49 83 -8 174 -8 C266 -8 317 50 331 136 L390 513 L325 513 L274 191 C262 121 248 53 182 53 C118 53 125 121 136 191 L187 513 L122 513 Z M224 615 L252 585 L400 702 L355 750 L224 615 Z " />
<glyph glyph-name="ucircumflex" unicode="&#xfb;" horiz-adv-x="350" d="M122 513 L63 136 C49 49 83 -8 174 -8 C266 -8 317 50 331 136 L390 513 L325 513 L274 191 C262 121 248 53 182 53 C118 53 125 121 136 191 L187 513 L122 513 Z M291 743 L148 621 L177 585 L279 671 L356 585 L398 621 L291 743 Z " />
<glyph glyph-name="udieresis" unicode="&#xfc;" horiz-adv-x="350" d="M122 513 L63 136 C49 49 83 -8 174 -8 C266 -8 317 50 331 136 L390 513 L325 513 L274 191 C262 121 248 53 182 53 C118 53 125 121 136 191 L187 513 L122 513 Z M164 663 C160 638 178 617 203 617 C228 617 252 638 256 663 C260 688 242 709 217 709 C192 709 168 688 164 663 L164 663 Z M304 663 C300 638 318 617 343 617 C368 617 392 638 396 663 C400 688 382 709 357 709 C332 709 308 688 304 663 L304 663 Z " />
<glyph glyph-name="yacute" unicode="&#xfd;" horiz-adv-x="332" d="M405 513 L337 513 L227 231 C210 187 195 143 179 99 L176 99 L155 513 L89 513 L132 14 L48 -196 L116 -196 L405 513 Z M225 615 L253 585 L401 702 L356 750 L225 615 Z " />
<glyph glyph-name="thorn" unicode="&#xfe;" horiz-adv-x="349" d="M116 40 L118 40 C133 11 159 -8 196 -8 C303 -8 335 101 360 262 C381 390 392 521 275 521 C238 521 212 506 188 478 L186 478 L224 720 L159 720 L14 -196 L79 -196 L116 40 Z M186 45 C115 45 130 162 147 271 C161 357 181 468 250 468 C324 468 306 344 294 267 C271 119 251 45 186 45 L186 45 Z " />
<glyph glyph-name="ydieresis" unicode="&#xff;" horiz-adv-x="332" d="M405 513 L337 513 L227 231 C210 187 195 143 179 99 L176 99 L155 513 L89 513 L132 14 L48 -196 L116 -196 L405 513 Z M155 663 C151 638 169 617 194 617 C219 617 243 638 247 663 C251 688 233 709 208 709 C183 709 159 688 155 663 L155 663 Z M295 663 C291 638 309 617 334 617 C359 617 383 638 387 663 C391 688 373 709 348 709 C323 709 299 688 295 663 L295 663 Z " />
<glyph glyph-name="dotlessi" unicode="&#x131;" horiz-adv-x="155" d="M191 513 L126 513 L45 0 L110 0 L191 513 Z " />
<glyph glyph-name="Lslash" unicode="&#x141;" horiz-adv-x="294" d="M60 0 L294 0 L304 64 L140 64 L189 373 L289 435 L298 495 L199 434 L249 754 L179 754 L121 387 L61 350 L52 288 L111 325 L60 0 Z " />
<glyph glyph-name="lslash" unicode="&#x142;" horiz-adv-x="155" d="M45 0 L110 0 L183 462 L247 506 L255 558 L192 515 L237 800 L172 800 L119 465 L55 421 L46 367 L110 411 L45 0 Z " />
<glyph glyph-name="OE" unicode="&#x152;" horiz-adv-x="613" d="M506 690 L673 690 L683 754 L450 754 L440 687 L438 687 C424 730 387 764 338 764 C171 764 118 504 99 385 C81 270 40 -10 211 -10 C265 -10 315 27 341 78 L343 78 L331 0 L564 0 L574 64 L407 64 L454 360 L616 360 L626 424 L464 424 L506 690 Z M167 358 C189 501 232 696 328 696 C428 696 422 586 386 358 C351 140 321 58 228 58 C141 58 139 183 167 358 L167 358 Z " />
<glyph glyph-name="oe" unicode="&#x153;" horiz-adv-x="560" d="M359 298 C366 344 399 460 464 460 C532 460 517 356 512 307 L511 298 L359 298 Z M247 460 C319 460 299 305 292 259 C284 207 251 53 182 53 C110 58 132 218 138 258 C147 317 177 465 247 460 L247 460 Z M568 243 L573 274 C588 364 594 521 474 521 C419 521 364 468 345 413 L343 413 C344 465 312 521 255 521 C131 521 85 346 71 257 C46 98 73 -8 168 -8 C229 -8 274 45 294 100 L296 100 C301 34 340 -8 399 -8 C494 -8 540 96 554 174 L487 174 L483 159 C474 118 455 53 402 53 C328 53 339 177 347 228 L349 243 L568 243 Z " />
<glyph glyph-name="Scaron" unicode="&#x160;" horiz-adv-x="389" d="M437 724 C405 749 369 764 324 764 C213 764 135 665 119 564 C102 456 159 407 216 363 C273 318 332 279 317 191 C307 123 256 58 182 58 C134 58 96 85 70 119 L55 28 C85 2 126 -10 168 -10 C286 -10 374 94 391 204 C408 308 351 356 295 401 C236 445 179 486 193 574 C203 638 251 696 321 696 C369 696 398 669 423 635 L437 724 Z M465 918 L434 954 L330 868 L255 954 L215 918 L319 796 L465 918 Z " />
<glyph glyph-name="scaron" unicode="&#x161;" horiz-adv-x="278" d="M318 488 C295 508 267 521 234 521 C157 521 97 467 85 390 C75 329 111 289 146 253 C182 216 218 182 210 131 C203 88 167 53 122 53 C83 53 60 77 39 103 L27 27 C49 7 83 -8 115 -8 C200 -8 265 57 278 139 C289 206 254 244 217 279 C182 313 144 343 152 392 C158 430 188 460 227 460 C263 460 289 435 304 408 L306 408 L318 488 Z M386 707 L355 743 L251 657 L176 743 L136 707 L240 585 L386 707 Z " />
<glyph glyph-name="Ydieresis" unicode="&#x178;" horiz-adv-x="392" d="M492 754 L417 754 L304 504 C288 470 278 434 265 399 L261 399 C256 433 253 467 248 500 L213 754 L138 754 L217 330 L165 0 L235 0 L287 330 L492 754 Z M224 874 C220 849 238 828 263 828 C288 828 312 849 316 874 C320 899 303 920 278 920 C253 920 228 899 224 874 L224 874 Z M364 874 C360 849 378 828 403 828 C428 828 452 849 456 874 C460 899 443 920 418 920 C393 920 368 899 364 874 L364 874 Z " />
<glyph glyph-name="Zcaron" unicode="&#x17d;" horiz-adv-x="335" d="M435 754 L158 754 L148 690 L337 690 L19 0 L295 0 L305 64 L115 64 L435 754 Z M446 918 L415 954 L311 868 L236 954 L196 918 L300 796 L446 918 Z " />
<glyph glyph-name="zcaron" unicode="&#x17e;" horiz-adv-x="331" d="M292 60 L118 60 L397 513 L124 513 L115 453 L290 453 L15 0 L282 0 L292 60 Z M413 707 L382 743 L278 657 L203 743 L163 707 L267 585 L413 707 Z " />
<glyph glyph-name="florin" unicode="&#x192;" horiz-adv-x="416" d="M432 487 L449 539 L361 539 L415 700 C432 750 449 780 484 780 C503 780 511 772 523 760 L546 829 C530 837 509 840 490 840 C400 840 371 770 347 697 L295 539 L233 539 L216 487 L277 487 L108 -21 C91 -71 70 -101 40 -101 C23 -101 9 -92 -1 -81 L-24 -150 C-4 -157 10 -161 33 -161 C121 -161 151 -91 175 -18 L344 487 L432 487 Z " />
<glyph glyph-name="circumflex" unicode="&#x2c6;" horiz-adv-x="280" d="M256 743 L113 621 L142 585 L244 671 L321 585 L363 621 L256 743 Z " />
<glyph glyph-name="caron" unicode="&#x2c7;" horiz-adv-x="280" d="M377 707 L346 743 L242 657 L167 743 L127 707 L231 585 L377 707 Z " />
<glyph glyph-name="uni02C9" unicode="&#x2c9;" horiz-adv-x="280" d="M114 635 L369 635 L377 688 L122 688 L114 635 Z " />
<glyph glyph-name="breve" unicode="&#x2d8;" horiz-adv-x="280" d="M337 698 C319 659 277 648 244 648 C211 648 171 659 167 698 L116 698 C111 626 173 593 235 593 C297 593 369 626 387 698 L337 698 Z " />
<glyph glyph-name="dotaccent" unicode="&#x2d9;" horiz-adv-x="280" d="M199 663 C195 638 213 617 238 617 C263 617 287 638 291 663 C295 688 277 709 252 709 C227 709 203 688 199 663 L199 663 Z " />
<glyph glyph-name="ring" unicode="&#x2da;" horiz-adv-x="280" d="M263 769 C213 769 165 729 158 679 C150 629 184 588 234 588 C284 588 331 629 339 679 C346 729 313 769 263 769 L263 769 Z M256 724 C281 724 298 704 294 679 C290 654 266 633 241 633 C216 633 199 654 203 679 C207 704 231 724 256 724 L256 724 Z " />
<glyph glyph-name="ogonek" unicode="&#x2db;" horiz-adv-x="280" d="M124 0 C93 -25 61 -56 55 -96 C47 -148 86 -172 133 -172 C152 -172 169 -169 187 -162 L196 -108 C181 -113 164 -117 150 -117 C128 -117 109 -107 113 -82 C118 -53 151 -19 175 0 L124 0 Z " />
<glyph glyph-name="tilde" unicode="&#x2dc;" horiz-adv-x="280" d="M167 622 C169 638 175 655 196 655 C208 655 222 646 238 636 C254 627 272 617 292 617 C341 617 374 666 382 698 L323 698 C321 684 310 667 293 667 C272 667 233 703 202 703 C153 703 118 661 109 622 L167 622 Z " />
<glyph glyph-name="hungarumlaut" unicode="&#x2dd;" horiz-adv-x="280" d="M196 742 L116 600 L156 585 L256 718 L196 742 Z M313 742 L233 600 L272 585 L373 718 L313 742 Z " />
<glyph glyph-name="uni03A9" unicode="&#x3a9;" horiz-adv-x="530" d="M159 58 L47 58 L38 0 L218 0 L225 43 C179 103 151 250 174 396 C201 570 280 697 376 697 C482 697 500 532 480 395 C455 240 385 107 318 43 L311 0 L490 0 L499 58 L387 58 L388 62 C451 131 522 258 546 412 C578 611 519 757 389 757 C262 757 147 627 112 407 C89 259 116 138 160 62 L159 58 Z " />
<glyph glyph-name="uni03BC" unicode="&#x3bc;" horiz-adv-x="350" d="M324 513 L268 157 C254 72 241 45 192 45 C118 45 128 126 137 180 L189 513 L124 513 L12 -196 L77 -196 L114 41 C136 11 168 -8 208 -8 C302 -8 320 74 331 146 L389 513 L324 513 Z " />
<glyph glyph-name="pi" unicode="&#x3c0;" horiz-adv-x="441" d="M493 495 L509 555 L212 555 C151 555 116 544 96 530 L99 485 C114 490 134 495 179 495 C154 346 97 118 46 0 L107 0 C154 108 216 351 242 495 L373 495 L317 140 C305 62 304 17 308 0 L368 0 C366 26 367 64 380 143 L435 495 L493 495 Z " />
<glyph glyph-name="uni2010" unicode="&#x2010;" horiz-adv-x="156" d="M44 280 L200 280 L213 359 L57 359 L44 280 Z " />
<glyph glyph-name="endash" unicode="&#x2013;" horiz-adv-x="500" d="M44 280 L544 280 L557 359 L57 359 L44 280 Z " />
<glyph glyph-name="emdash" unicode="&#x2014;" horiz-adv-x="1000" d="M174 280 L914 280 L927 359 L187 359 L174 280 Z " />
<glyph glyph-name="quoteleft" unicode="&#x2018;" horiz-adv-x="224" d="M303 741 L259 764 L124 541 L188 508 L303 741 Z " />
<glyph glyph-name="quoteright" unicode="&#x2019;" horiz-adv-x="224" d="M302 731 L237 764 L122 531 L166 508 L302 731 Z " />
<glyph glyph-name="quotesinglbase" unicode="&#x201a;" horiz-adv-x="224" d="M166 62 L101 95 L-14 -138 L30 -161 L166 62 Z " />
<glyph glyph-name="quotedblleft" unicode="&#x201c;" horiz-adv-x="358" d="M257 541 L322 508 L437 741 L392 764 L257 541 Z M124 541 L188 508 L303 741 L259 764 L124 541 Z " />
<glyph glyph-name="quotedblright" unicode="&#x201d;" horiz-adv-x="358" d="M166 508 L302 731 L237 764 L122 531 L166 508 Z M300 508 L436 731 L371 764 L256 531 L300 508 Z " />
<glyph glyph-name="quotedblbase" unicode="&#x201e;" horiz-adv-x="358" d="M196 62 L131 95 L16 -138 L60 -161 L196 62 Z M330 62 L265 95 L150 -138 L194 -161 L330 62 Z " />
<glyph glyph-name="dagger" unicode="&#x2020;" horiz-adv-x="415" d="M155 -137 L216 -137 L317 496 L437 496 L446 557 L326 557 L357 754 L296 754 L265 557 L145 557 L136 496 L256 496 L155 -137 Z " />
<glyph glyph-name="daggerdbl" unicode="&#x2021;" horiz-adv-x="415" d="M251 466 L208 194 L88 194 L78 133 L198 133 L155 -137 L216 -137 L259 133 L379 133 L389 194 L269 194 L312 466 L432 466 L441 527 L321 527 L357 754 L296 754 L260 527 L140 527 L131 466 L251 466 Z " />
<glyph glyph-name="bullet" unicode="&#x2022;" horiz-adv-x="415" d="M299 566 C195 566 96 480 80 378 C64 277 135 190 239 190 C341 190 440 277 456 378 C472 480 401 566 299 566 L299 566 Z " />
<glyph glyph-name="ellipsis" unicode="&#x2026;" horiz-adv-x="1000" d="M181 94 C153 94 126 71 122 43 C117 15 137 -8 165 -8 C193 -8 219 15 224 43 C228 71 209 94 181 94 L181 94 Z M515 94 C487 94 460 71 456 43 C451 15 471 -8 499 -8 C527 -8 553 15 558 43 C562 71 543 94 515 94 L515 94 Z M849 94 C821 94 794 71 790 43 C785 15 805 -8 833 -8 C861 -8 887 15 892 43 C896 71 877 94 849 94 L849 94 Z " />
<glyph glyph-name="perthousand" unicode="&#x2030;" horiz-adv-x="759" d="M465 376 C375 376 353 254 342 183 C331 112 313 -10 403 -10 C493 -10 515 112 526 183 C537 254 555 376 465 376 L465 376 Z M459 338 C506 338 494 244 484 183 C474 122 456 28 409 28 C362 28 374 122 384 183 C394 244 412 338 459 338 L459 338 Z M702 376 C612 376 590 254 579 183 C568 112 550 -10 640 -10 C730 -10 752 112 763 183 C774 254 792 376 702 376 L702 376 Z M696 338 C743 338 731 244 721 183 C711 122 693 28 646 28 C599 28 611 122 621 183 C631 244 649 338 696 338 L696 338 Z M177 378 C267 378 288 500 299 571 C311 642 328 764 238 764 C148 764 127 642 115 571 C104 500 87 378 177 378 L177 378 Z M232 726 C279 726 267 632 257 571 C248 510 230 416 183 416 C136 416 148 510 157 571 C167 632 185 726 232 726 L232 726 Z M559 754 L527 754 L80 0 L114 0 L559 754 Z " />
<glyph glyph-name="guilsinglleft" unicode="&#x2039;" horiz-adv-x="249" d="M184 103 L231 127 L154 316 L292 510 L253 535 L95 316 L184 103 Z " />
<glyph glyph-name="guilsinglright" unicode="&#x203a;" horiz-adv-x="249" d="M166 535 L119 511 L196 322 L58 128 L97 103 L255 322 L166 535 Z " />
<glyph glyph-name="fraction" unicode="&#x2044;" horiz-adv-x="122" d="M364 754 L323 754 L-123 0 L-81 0 L364 754 Z " />
<glyph glyph-name="Euro" unicode="&#x20ac;" horiz-adv-x="416" d="M496 732 C481 747 446 762 389 762 C268 762 196 655 156 475 L111 475 L89 421 L144 421 C140 407 138 389 136 376 C133 363 131 345 130 334 L89 334 L67 281 L127 281 C105 72 159 -9 266 -9 C327 -9 365 5 383 19 L394 86 C369 65 338 51 285 51 C209 51 172 123 191 281 L339 281 L361 334 L196 334 C198 346 199 362 202 376 C203 388 207 408 210 421 L397 421 L419 475 L221 475 C249 611 301 701 389 701 C440 701 470 687 485 666 L496 732 Z " />
<glyph glyph-name="afii61289" unicode="&#x2113;" horiz-adv-x="384" d="M356 132 C329 93 290 48 242 48 C193 48 166 95 188 235 L196 281 C310 401 392 531 413 664 C429 762 406 824 345 824 C283 824 212 766 183 579 L136 287 C114 263 87 239 60 215 L74 176 C91 192 110 207 126 222 L123 205 C104 84 122 -5 222 -5 C286 -5 340 38 382 105 L356 132 Z M243 579 C265 719 304 770 336 770 C373 770 384 734 373 665 C356 556 288 449 207 354 L243 579 Z " />
<glyph glyph-name="trademark" unicode="&#x2122;" horiz-adv-x="722" d="M785 754 L699 754 L574 457 L572 457 L544 754 L456 754 L390 333 L441 333 L499 701 L501 701 L536 333 L572 333 L724 701 L726 701 L668 333 L719 333 L785 754 Z M411 754 L176 754 L168 703 L260 703 L202 333 L253 333 L311 703 L403 703 L411 754 Z " />
<glyph glyph-name="Omega" unicode="&#x2126;" horiz-adv-x="530" d="M159 58 L47 58 L38 0 L218 0 L225 43 C179 103 151 250 174 396 C201 570 280 697 376 697 C482 697 500 532 480 395 C455 240 385 107 318 43 L311 0 L490 0 L499 58 L387 58 L388 62 C451 131 522 258 546 412 C578 611 519 757 389 757 C262 757 147 627 112 407 C89 259 116 138 160 62 L159 58 Z " />
<glyph glyph-name="estimated" unicode="&#x212e;" horiz-adv-x="1054" d="M1017 366 L1017 377 C1017 591 825 764 587 764 C350 764 157 591 157 377 C157 164 350 -9 587 -9 C725 -9 850 50 927 141 L865 141 C797 63 699 12 588 12 C485 12 392 57 325 127 C319 134 315 142 315 151 L315 362 C315 365 318 366 321 366 L1017 366 Z M859 394 C859 391 858 387 855 387 L321 387 C318 387 315 391 315 394 L315 601 C315 611 319 620 326 627 C393 696 486 741 588 741 C690 741 781 697 849 631 C856 624 859 615 859 605 L859 394 Z " />
<glyph glyph-name="partialdiff" unicode="&#x2202;" horiz-adv-x="428" d="M198 734 C225 759 261 783 306 783 C388 783 431 655 402 475 L397 439 L396 439 C385 471 352 514 290 514 C202 514 101 406 74 235 C52 93 89 -4 183 -4 C312 -4 413 152 459 444 C506 737 420 842 322 842 C262 842 217 814 186 788 L198 734 Z M199 55 C143 55 119 120 137 235 C156 355 224 456 290 456 C344 456 372 407 378 358 C342 190 272 55 200 55 L199 55 Z " />
<glyph glyph-name="uni2206" unicode="&#x2206;" horiz-adv-x="492" d="M28 0 L465 0 L472 46 L404 764 L334 764 L35 45 L28 0 Z M99 56 L278 486 C300 546 333 613 348 663 L352 663 C352 609 365 536 368 476 L409 56 L99 56 Z " />
<glyph glyph-name="product" unicode="&#x220f;" horiz-adv-x="656" d="M633 683 L633 747 L143 747 L143 683 L220 683 L220 -103 L283 -103 L283 683 L493 683 L493 -103 L556 -103 L556 683 L633 683 Z " />
<glyph glyph-name="summation" unicode="&#x2211;" horiz-adv-x="550" d="M533 -103 L533 -37 L214 -37 L214 -33 L421 333 L232 685 L232 689 L516 689 L516 747 L149 747 L149 698 L350 321 L140 -54 L140 -103 L533 -103 Z " />
<glyph glyph-name="minus" unicode="&#x2212;" horiz-adv-x="444" d="M469 282 L66 282 L58 231 L461 231 L469 282 Z " />
<glyph glyph-name="uni2215" unicode="&#x2215;" horiz-adv-x="122" d="M364 754 L323 754 L-123 0 L-81 0 L364 754 Z " />
<glyph glyph-name="uni2219" unicode="&#x2219;" horiz-adv-x="208" d="M151 303 C123 303 97 280 93 252 C88 224 107 201 135 201 C165 201 190 224 195 252 C199 280 181 303 151 303 L151 303 Z " />
<glyph glyph-name="radical" unicode="&#x221a;" horiz-adv-x="588" d="M580 890 L534 890 L388 25 C383 -5 379 -40 377 -59 L376 -58 C374 -40 367 -1 361 30 L265 404 L150 361 L162 318 L221 340 L351 -162 L406 -162 L580 890 Z " />
<glyph glyph-name="infinity" unicode="&#x221e;" horiz-adv-x="741" d="M700 313 C700 393 648 447 573 448 C499 448 455 394 411 345 C365 400 315 448 249 448 C170 448 113 389 113 308 C113 231 172 172 244 172 C315 172 363 222 408 274 C468 203 512 172 567 172 C637 172 700 226 700 312 L700 313 Z M249 214 C196 214 159 255 159 308 C158 360 188 406 244 406 C306 406 344 355 384 307 C347 266 306 214 250 214 L249 214 Z M568 406 C619 406 656 371 656 308 C656 262 624 214 570 214 C522 214 490 247 433 310 C463 342 510 406 567 406 L568 406 Z " />
<glyph glyph-name="integral" unicode="&#x222b;" horiz-adv-x="431" d="M410 900 C402 906 383 912 367 912 C335 912 304 895 285 870 C252 827 240 763 240 647 C240 479 250 271 250 98 C250 -10 239 -61 225 -86 C215 -104 200 -113 185 -113 C171 -113 159 -108 152 -104 L140 -156 C149 -162 169 -170 190 -170 C224 -170 257 -154 275 -120 C298 -81 313 -19 313 98 C313 270 303 474 303 641 C303 750 310 801 330 832 C341 850 356 859 372 859 C382 859 392 855 399 851 L410 900 Z " />
<glyph glyph-name="approxequal" unicode="&#x2248;" horiz-adv-x="516" d="M454 434 C433 391 413 366 381 366 C355 366 335 380 307 396 C287 408 256 432 215 432 C166 432 126 398 102 344 L133 322 C152 360 174 389 210 389 C235 389 257 376 285 359 C322 336 346 323 377 323 C428 323 464 363 483 412 L454 434 Z M454 287 C433 245 413 220 381 220 C355 220 335 234 307 251 C287 263 256 286 215 286 C166 286 126 252 102 197 L133 176 C151 212 173 244 211 244 C236 244 257 230 285 212 C323 189 346 177 377 177 C429 177 464 217 483 266 L454 287 Z " />
<glyph glyph-name="notequal" unicode="&#x2260;" horiz-adv-x="528" d="M401 491 L366 505 L325 410 L123 410 L123 364 L308 364 L256 241 L123 241 L123 196 L239 196 L205 116 L239 101 L280 196 L486 196 L486 241 L296 241 L349 364 L486 364 L486 410 L366 410 L401 491 Z " />
<glyph glyph-name="lessequal" unicode="&#x2264;" horiz-adv-x="540" d="M497 128 L497 184 L186 356 L186 359 L497 529 L497 585 L139 379 L139 333 L497 128 Z M499 42 L499 90 L136 90 L136 42 L499 42 Z " />
<glyph glyph-name="greaterequal" unicode="&#x2265;" horiz-adv-x="540" d="M140 585 L140 529 L451 357 L451 355 L140 184 L140 128 L498 334 L498 379 L140 585 Z M499 42 L499 90 L136 90 L136 42 L499 42 Z " />
<glyph glyph-name="lozenge" unicode="&#x25ca;" horiz-adv-x="589" d="M544 373 L384 780 L330 780 L167 373 L327 -33 L381 -33 L544 373 Z M484 372 L371 87 C366 73 359 43 357 30 L353 30 C351 43 347 66 339 88 L227 375 L339 656 C347 678 351 699 354 716 L357 716 C360 700 365 675 372 656 L484 372 Z " />
<glyph glyph-name="fi" unicode="&#xfb01;" horiz-adv-x="363" d="M286 513 L201 513 L225 666 C233 715 243 748 279 748 C298 748 311 737 323 726 L334 797 C318 805 298 808 279 808 C206 808 175 755 160 665 L136 513 L81 513 L72 453 L127 453 L55 0 L120 0 L192 453 L277 453 L286 513 Z M399 513 L334 513 L253 0 L318 0 L399 513 Z M439 665 C443 691 425 713 399 713 C372 713 346 691 342 665 C338 638 357 616 384 616 C410 616 435 638 439 665 L439 665 Z " />
<glyph glyph-name="fl" unicode="&#xfb02;" horiz-adv-x="363" d="M445 800 L380 800 L253 0 L318 0 L445 800 Z M286 513 L201 513 L225 665 C234 717 241 748 279 748 C298 748 311 737 323 726 L334 797 C318 805 298 808 279 808 C218 808 176 767 160 664 L136 513 L81 513 L72 453 L127 453 L55 0 L120 0 L192 453 L277 453 L286 513 Z " />
</font>
</svg>
